<svg height="240" width="600" xmlns="http://www.w3.org/2000/svg"><path clip-rule="evenodd" d="M471.254 173.893c0-2.417 1.955-4.378 4.361-4.378 2.412 0 4.367 1.961 4.367 4.378 0 2.418-1.955 4.377-4.367 4.377-2.406 0-4.361-1.959-4.361-4.377" fill="#231F20" fill-rule="evenodd" stroke="#231F20"/><g fill="#F7981D"><path d="M255.538 32.791l-35.213-11.246c.05 9.062.107 46.7.12 49.814 2.674 1.05 26.714 8.543 35.051 11.832l.042-50.4M263.67 32.809l35.21-11.246c-.046 9.062-.104 46.699-.118 49.812-2.674 1.051-26.711 8.541-35.048 11.832l-.044-50.398M292.042 15.943l-32.416-8.599-32.446 8.582 32.49 10.521 32.372-10.504M169.04 32.794l-35.212-11.249c.05 9.062.107 47.979.119 51.09 2.674 1.053 26.714 8.544 35.052 11.832l.041-51.673M177.174 32.809l35.21-11.246c-.048 9.062-.106 46.701-.12 49.812-2.674 1.051-26.712 8.543-35.049 11.833l-.041-50.399M205.544 15.943l-32.414-8.599-32.448 8.582 32.49 10.521 32.372-10.504M125.602 106.491l-35.214-11.246c.05 9.062.107 46.7.121 49.813 2.672 1.051 26.712 8.542 35.049 11.832l.044-50.399M133.734 106.51l35.211-11.248c-.047 9.062-.105 46.701-.121 49.813-2.672 1.05-26.71 8.543-35.047 11.833l-.043-50.398M162.106 89.644l-32.416-9.879-32.447 9.86 32.489 10.521 32.374-10.502M37.826 106.491l-35.213-11.246c.05 9.062.107 46.7.12 49.813 2.674 1.051 26.713 8.542 35.051 11.832l.042-50.399M45.958 106.51l35.211-11.248c-.048 9.064-.105 46.701-.12 49.813-2.674 1.05-26.71 8.543-35.049 11.833l-.042-50.398M74.329 89.645l-32.414-9.88-32.448 9.86 32.49 10.521 32.372-10.501M81.687 178.771l-35.213-11.247c.051 9.062.107 46.7.121 49.813 2.673 1.051 26.713 8.542 35.051 11.832l.041-50.398M89.82 178.788l35.21-11.247c-.047 9.062-.105 46.699-.119 49.812-2.673 1.052-26.711 8.543-35.048 11.833l-.043-50.398M118.191 161.922l-32.416-9.878-32.445 9.86 32.489 10.523 32.372-10.505"/></g><path d="M236.602 186.9c.128-.385.054-.812-.206-1.174-.382-.53-1.097-.859-1.869-.859l-2.535.009c-.931 0-2.117.629-2.408 1.647l-7.692 27.103-7.609-27.044c-.229-.848-1.028-1.706-2.114-1.706h-3.001c-1.082 0-1.87.869-2.089 1.724l-7.078 26.763-7.312-26.846c-.29-.982-1.505-1.641-2.458-1.641l-3.65-.007c-.779 0-1.504.335-1.892.874-.263.365-.336.78-.215 1.14l11.3 40.001c.248.84.977 1.688 2.043 1.688h3.628c.98 0 1.84-.714 2.087-1.728l6.954-26.645 7.568 26.675c.227.817.96 1.697 2.031 1.697h3.569c.993 0 1.829-.69 2.074-1.701l10.874-39.97zm36.659 29.088c-.271-.484-.789-.85-1.399-.983l-3.594-.688c-.965-.151-2.071.421-2.437 1.249-1.746 3.983-4.928 6.242-8.921 6.36-3.845-.119-7.373-2.402-8.989-5.813-1.314-2.786-1.509-5.533-1.53-8.325l26.023-.009c.546 0 1.111-.241 1.51-.644.333-.336.514-.752.51-1.169-.063-10.34-4.789-21.387-17.863-21.387-12.948 0-18.845 11.448-18.845 22.083 0 13.273 7.331 21.85 18.677 21.85 8.12 0 14.31-4.103 16.984-11.27.142-.41.097-.855-.126-1.254zm-26.527-14.14c.44-5.379 3.934-10.956 9.852-11.171 6.298.206 9.178 5.655 9.318 11.171h-19.17zm68.053 3.84c0-5.54-1.365-10.839-3.746-14.534-2.752-4.284-7.488-6.945-12.359-6.945h-.689c-4.299 0-7.676 1.786-10.271 5.444l-.003-16.861c0-.947-.977-1.81-2.057-1.81h-3.743c-.978 0-2.072.773-2.074 1.81v52.638c.004.956.982 1.826 2.061 1.826l1.099-.008c1.037 0 1.776-.835 2.025-1.612l1.171-3.716c2.72 3.863 6.816 6.131 11.2 6.131h.671c11.547 0 16.715-11.232 16.715-22.363zm-8.338 1.04c0 2.448-.443 14.677-9.13 14.99-2.911-.112-5.855-1.824-7.497-4.354-1.211-1.914-1.917-4.56-2.1-7.833v-7.194c.143-5.512 4.021-11.559 9.569-11.793 8.717.344 9.158 13.54 9.158 16.184zm54.213 8.55c0-3.969-1.785-7.518-4.896-9.735-2.434-1.749-5.359-2.333-8.289-2.919l-5.619-1.041c-4.033-.663-6.367-1.744-6.367-5.303 0-3.762 3.898-5.2 7.203-5.289 4.035.103 7.072 1.902 8.545 5.07.35.746 1.127 1.248 1.934 1.248.139 0 .277-.015.412-.045l3.506-.773c.574-.126 1.107-.52 1.393-1.028.229-.406.279-.848.143-1.243-2.146-6.251-7.594-9.555-15.838-9.555-7.447.016-15.406 3.327-15.406 12.577 0 6.322 3.975 10.336 11.816 11.934l6.291 1.199c3.453.661 6.984 1.837 6.984 5.545 0 5.489-6.389 6.049-8.32 6.089-4.332-.094-9.238-2.026-10.43-6.119-.238-.899-1.371-1.536-2.363-1.329l-3.668.757c-.553.117-1.057.476-1.352.959-.246.405-.316.856-.203 1.27 1.893 6.792 8.447 10.887 17.535 10.955l.203.002c8.114-.001 16.786-3.477 16.786-13.226zm39.561.744c-.273-.484-.791-.851-1.4-.982l-3.6-.688c-.842-.137-2.018.299-2.432 1.252-1.746 3.979-4.93 6.239-8.92 6.361-3.848-.122-7.375-2.405-8.986-5.815-1.316-2.779-1.512-5.529-1.531-8.327l26.021-.007c.543 0 1.104-.239 1.502-.64.334-.337.518-.754.514-1.174-.061-10.338-4.783-21.386-17.859-21.386-12.951 0-18.85 11.448-18.85 22.084 0 13.271 7.332 21.847 18.68 21.847 8.123 0 14.312-4.104 16.988-11.271.142-.409.097-.854-.127-1.254zm-26.53-14.134c.438-5.384 3.93-10.965 9.85-11.17 6.295.2 9.178 5.651 9.324 11.17h-19.174zm41.026 5.221c0-3.208.299-5.625 1.83-8.484 2.189-4.073 5.248-6.07 9.348-6.104 1.027-.007 1.93-.904 1.93-1.921v-3.609c0-.943-.818-1.773-1.863-1.887-.508-.057-.996-.084-1.471-.084-4.367 0-7.914 2.375-10.375 6.911l.01-3.972c-.004-.963-.965-1.808-2.055-1.808h-3.25c-1.066 0-2.008.849-2.016 1.822l-.004 38.591c0 .969.941 1.818 2.014 1.818l3.793-.001c.986 0 2.098-.775 2.105-1.817l.004-19.455zm53.191-20.707c.131-.382.061-.793-.199-1.156-.391-.547-1.15-.899-1.934-.899l-2.996.001c-.938 0-2.141.673-2.432 1.661l-9.705 30.51-9.916-30.479c-.291-1.012-1.496-1.692-2.441-1.692l-4.275-.004c-.785 0-1.543.35-1.932.892-.262.36-.332.771-.203 1.154l13.566 40.247c.262.796.953 1.726 2.047 1.726h5.174c.949 0 1.729-.646 2.086-1.729l13.16-40.232zm11.912-.411c0-1.007-1.004-1.891-2.146-1.891l-4.107-.004c-1.117 0-2.135.903-2.135 1.895l-.02 40.975c0 .496.254.988.697 1.354.404.332.924.523 1.443.523l4.135.006h.004c1.133-.01 2.129-.889 2.129-1.881v-40.977zm38.356 27.879c.037-.429-.109-.858-.414-1.207-.395-.453-1.021-.742-1.711-.776l-3.43.013c-.957 0-1.76.575-2.115 1.575-1.254 5.403-4.09 8.204-8.393 8.328-8.379-.25-9.031-11.929-9.031-15.503 0-7.127 2.469-14.816 9.359-15.02 4.158.127 7.184 3.108 8.092 7.969.172.991.934 1.741 1.973 1.873l3.67.036c1.098-.12 1.957-.949 1.949-1.979-1.299-8.782-7.383-14.458-15.516-14.458l-.281.008-.318-.008c-11.828 0-17.123 11.039-17.123 21.979 0 10.028 4.465 21.74 17.057 21.74h.604c7.929.001 13.913-5.558 15.628-14.57zm39.093 2.152c-.275-.489-.779-.846-1.398-.982l-3.594-.688c-.848-.137-2.018.299-2.432 1.252-1.752 3.979-4.938 6.239-8.926 6.362-3.848-.123-7.373-2.406-8.982-5.816-1.318-2.783-1.514-5.533-1.535-8.327l26.025-.004c.545 0 1.111-.242 1.51-.647.334-.339.512-.756.506-1.169-.059-10.338-4.783-21.386-17.861-21.386-12.949 0-18.846 11.448-18.846 22.084 0 13.271 7.332 21.847 18.68 21.847 8.117 0 14.305-4.101 16.982-11.269.141-.413.094-.86-.129-1.257zm-26.527-14.134c.438-5.386 3.932-10.965 9.854-11.17 6.297.2 9.18 5.651 9.322 11.17h-19.176zm65.197 13.39c0-3.972-1.785-7.521-4.895-9.735-2.438-1.75-5.367-2.334-8.293-2.919l-5.619-1.041c-4.029-.663-6.361-1.744-6.361-5.303 0-4.852 6.02-5.258 7.195-5.289 4.039.103 7.076 1.902 8.547 5.071.352.747 1.131 1.247 1.938 1.247.141 0 .281-.015.416-.045l3.504-.773c.572-.126 1.105-.521 1.393-1.03.227-.405.277-.846.141-1.241-2.145-6.251-7.594-9.555-15.84-9.555-7.445.016-15.402 3.327-15.402 12.577 0 6.323 3.973 10.338 11.812 11.934l6.293 1.199c3.455.661 6.986 1.837 6.986 5.545 0 5.489-6.389 6.049-8.32 6.089-4.016-.087-9.158-1.745-10.428-6.114-.232-.904-1.365-1.54-2.375-1.334l-3.662.757c-.555.118-1.061.479-1.355.966-.242.404-.314.854-.197 1.263 1.887 6.792 8.441 10.887 17.529 10.955l.203.002c8.117-.001 16.79-3.477 16.79-13.226z"/><g clip-rule="evenodd" fill-rule="evenodd"><path d="M422.346 104.458v-9.306c.006-1.41 1.076-2.357 2.363-2.355l41.686-.002c1.33 0 2.404.971 2.404 2.348v7.98c-.014 1.335-1.141 3.081-3.141 5.854l-21.592 30.829c8.012-.19 16.494 1.01 23.773 5.102 1.645.924 2.082 2.292 2.217 3.63v9.928c0 1.369-1.498 2.95-3.07 2.127-12.832-6.723-29.859-7.457-44.051.077-1.447.774-2.965-.783-2.965-2.153v-9.434c0-1.505.029-4.091 1.549-6.394l25.02-35.887-21.781-.006c-1.332.001-2.399-.947-2.412-2.338M270.289 162.551h-12.685c-1.205-.08-2.171-.988-2.266-2.147l.008-65.092c0-1.302 1.096-2.343 2.446-2.343l11.812-.006c1.236.068 2.226 1.002 2.31 2.186v8.504h.235c3.076-8.223 8.876-12.052 16.689-12.052 7.932 0 12.904 3.829 16.457 12.052 3.08-8.223 10.062-12.052 17.525-12.052 5.328 0 11.121 2.189 14.674 7.117 4.023 5.481 3.195 13.421 3.195 20.41l-.008 41.078c0 1.298-1.096 2.345-2.443 2.345h-12.666c-1.275-.08-2.279-1.097-2.279-2.339v-34.511c0-2.738.234-9.589-.357-12.189-.949-4.387-3.791-5.613-7.457-5.613-3.08 0-6.277 2.055-7.58 5.336-1.301 3.292-1.184 8.771-1.184 12.467v34.505c0 1.298-1.094 2.345-2.443 2.345h-12.669c-1.27-.08-2.276-1.097-2.276-2.339l-.017-34.511c0-7.26 1.188-17.939-7.808-17.939-9.116 0-8.76 10.407-8.76 17.939l-.008 34.505c.005 1.297-1.092 2.344-2.445 2.344M504.688 91.601c18.822 0 29.004 16.161 29.004 36.7 0 19.865-11.25 35.617-29.004 35.617-18.471 0-28.535-16.165-28.535-36.299-.001-20.271 10.179-36.018 28.535-36.018m.115 13.282c-9.357 0-9.945 12.737-9.945 20.684 0 7.943-.117 24.926 9.83 24.926 9.828 0 10.301-13.697 10.301-22.051 0-5.479-.236-12.051-1.893-17.256-1.426-4.522-4.264-6.303-8.293-6.303zm53.301 57.668h-12.637c-1.273-.08-2.275-1.097-2.275-2.339l-.018-65.122c.104-1.186 1.158-2.121 2.432-2.121l11.768-.006c1.107.061 2.02.814 2.252 1.823v9.96h.238c3.547-8.904 8.523-13.146 17.279-13.146 5.686 0 11.252 2.05 14.801 7.667 3.312 5.203 3.312 13.967 3.312 20.269v40.962c-.143 1.154-1.17 2.053-2.424 2.053h-12.719c-1.172-.077-2.117-.943-2.258-2.053v-35.345c0-7.122.83-17.534-7.934-17.534-3.076 0-5.914 2.061-7.338 5.207-1.777 3.97-2.012 7.941-2.012 12.327v35.053c-.02 1.298-1.116 2.345-2.467 2.345"/><path d="M389.117 131.461c0 4.942.119 9.063-2.373 13.453-2.018 3.572-5.223 5.767-8.781 5.767-4.861 0-7.707-3.705-7.707-9.198 0-10.8 9.691-12.766 18.861-12.766v2.744m12.785 30.926c-.842.75-2.045.8-2.994.294-4.211-3.501-4.967-5.123-7.27-8.454-6.961 7.093-11.893 9.218-20.906 9.218-10.682 0-18.984-6.589-18.984-19.767 0-10.292 5.574-17.293 13.523-20.727 6.881-3.021 16.492-3.571 23.846-4.397v-1.646c0-3.018.238-6.589-1.545-9.195-1.537-2.334-4.502-3.293-7.117-3.293-4.838 0-9.135 2.48-10.193 7.618-.215 1.141-1.055 2.274-2.203 2.329l-12.289-1.332c-1.041-.233-2.191-1.063-1.893-2.646 2.826-14.916 16.291-19.422 28.361-19.422 6.166 0 14.236 1.645 19.102 6.312 6.166 5.769 5.572 13.454 5.572 21.828v19.758c0 5.944 2.471 8.553 4.793 11.756.803 1.154.986 2.523-.047 3.371-2.59 2.171-7.193 6.165-9.721 8.423l-.035-.028zm-179.038-30.926c0 4.942.118 9.063-2.371 13.453-2.016 3.572-5.224 5.767-8.778 5.767-4.869 0-7.714-3.705-7.714-9.198 0-10.8 9.688-12.766 18.863-12.766v2.744m12.787 30.926c-.838.75-2.051.8-2.999.294-4.211-3.501-4.967-5.123-7.27-8.454-6.959 7.093-11.891 9.218-20.91 9.218-10.678 0-18.983-6.589-18.983-19.767 0-10.292 5.578-17.293 13.528-20.727 6.882-3.021 16.492-3.571 23.846-4.397v-1.646c0-3.018.239-6.589-1.542-9.195-1.542-2.334-4.51-3.293-7.116-3.293-4.838 0-9.141 2.48-10.196 7.618-.219 1.141-1.055 2.274-2.202 2.329l-12.293-1.332c-1.038-.233-2.191-1.063-1.893-2.646 2.825-14.916 16.291-19.422 28.36-19.422 6.173 0 14.237 1.645 19.103 6.312 6.17 5.769 5.574 13.454 5.574 21.828v19.758c0 5.944 2.472 8.553 4.788 11.756.809 1.154.992 2.523-.039 3.371-2.593 2.171-7.197 6.165-9.725 8.423l-.031-.028z"/></g></svg>