<?xml version="1.0" standalone="no"?>
<!DOCTYPE svg PUBLIC "-//W3C//DTD SVG 1.1//EN" "http://www.w3.org/Graphics/SVG/1.1/DTD/svg11.dtd" >
<!--
2013-12-5: Created.
-->
<svg xmlns="http://www.w3.org/2000/svg">
<metadata>
Created by FontForge 20120731 at Thu Dec  5 16:12:01 2013
 By Parman, Ryan
Created by Parman, Ryan with FontForge 2.0 (http://fontforge.sf.net)
</metadata>
<defs>
<font id="aws-console" horiz-adv-x="512" >
  <font-face 
    font-family="aws-console"
    font-weight="500"
    font-stretch="normal"
    units-per-em="512"
    panose-1="2 0 6 9 0 0 0 0 0 0"
    ascent="448"
    descent="-64"
    bbox="-0.0804414 -64.1904 512.081 448"
    underline-thickness="25.6"
    underline-position="-51.2"
    unicode-range="U+F100-F2C6"
  />
    <missing-glyph />
    <glyph glyph-name="uniF100" unicode="&#xf100;" 
d="M329.143 54.8574v45.7139c0 2.66699 -0.857422 4.8584 -2.57227 6.57227c-1.71484 1.71582 -3.90527 2.57227 -6.57227 2.57227h-27.4277v146.284c0 2.66602 -0.857422 4.85742 -2.57227 6.57129c-1.71387 1.71484 -3.90527 2.57129 -6.57227 2.57129h-91.4258
c-2.66602 0 -4.85742 -0.856445 -6.57129 -2.57129c-1.71582 -1.71387 -2.57227 -3.9043 -2.57227 -6.57129v-45.7148c0 -2.66602 0.856445 -4.85645 2.57227 -6.57227c1.71387 -1.71387 3.90527 -2.57129 6.57129 -2.57129h27.4277v-91.4287h-27.4277
c-2.66602 0 -4.85742 -0.856445 -6.57129 -2.57129c-1.71582 -1.71387 -2.57227 -3.90527 -2.57227 -6.57227v-45.7139c0 -2.66699 0.856445 -4.8584 2.57227 -6.57227c1.71387 -1.71582 3.90527 -2.57227 6.57129 -2.57227h128c2.66602 0 4.85742 0.857422 6.57129 2.57227
c1.71387 1.7168 2.57129 3.90723 2.57129 6.57422v0zM292.571 310.857v45.7139c0 2.66602 -0.856445 4.85645 -2.57129 6.57129s-3.90527 2.57129 -6.57324 2.57129h-54.8555c-2.66602 0 -4.85645 -0.856445 -6.57129 -2.57129s-2.57324 -3.90527 -2.57324 -6.57129
v-45.7139c0 -2.66699 0.858398 -4.85742 2.57324 -6.57227c1.71484 -1.71387 3.90527 -2.57227 6.57129 -2.57227h54.8574c2.66699 0 4.8584 0.857422 6.57324 2.57227c1.71289 1.71484 2.56934 3.90527 2.56934 6.57227v0zM475.429 192
c0 -39.8096 -9.80957 -76.5234 -29.4287 -110.143s-46.2383 -60.2383 -79.8574 -79.8574s-70.333 -29.4287 -110.143 -29.4287s-76.5244 9.80957 -110.143 29.4287c-33.6191 19.6191 -60.2383 46.2383 -79.8574 79.8574s-29.4287 70.333 -29.4287 110.143
s9.80957 76.5244 29.4287 110.143c19.6191 33.6191 46.2383 60.2383 79.8574 79.8574c33.6182 19.6191 70.333 29.4287 110.143 29.4287s76.5234 -9.80957 110.143 -29.4287c33.6182 -19.6191 60.2383 -46.2383 79.8574 -79.8574
c19.6191 -33.6182 29.4287 -70.333 29.4287 -110.143z" />
    <glyph glyph-name="uniF101" unicode="&#xf101;" 
d="M477.429 295.429c0 -7.61914 -2.66699 -14.0947 -8 -19.4287l-206.857 -206.857l-38.8564 -38.8574c-5.33398 -5.33301 -11.8096 -8 -19.4277 -8c-7.61914 0 -14.0947 2.66699 -19.4287 8l-38.8584 38.8574l-103.429 103.429c-5.33301 5.33496 -8 11.8096 -8 19.4287
s2.66699 14.0947 8 19.4287l38.8574 38.8564c5.33301 5.33398 11.8096 8 19.4287 8c7.61816 0 14.0947 -2.66602 19.4277 -8l84 -84.2852l187.428 187.715c5.33398 5.33301 11.8096 8 19.4287 8c7.61719 0 14.0938 -2.66699 19.4268 -8l38.8574 -38.8574
c5.33594 -5.33301 8.00293 -11.8096 8.00293 -19.4287v0z" />
    <glyph glyph-name="uniF102" unicode="&#xf102;" 
d="M292.53 37.0303v54.2256c0 2.66309 -0.90332 4.89844 -2.71094 6.70605c-1.80664 1.80762 -3.94824 2.71191 -6.4209 2.71191h-54.7969c-2.47266 0 -4.61426 -0.904297 -6.4209 -2.71191c-1.80762 -1.80762 -2.71094 -4.04297 -2.71094 -6.70605v-54.2256
c0 -2.66309 0.90332 -4.89941 2.71094 -6.70703c1.80664 -1.80664 3.94824 -2.71094 6.4209 -2.71094h54.7969c2.47266 0 4.61426 0.904297 6.4209 2.71094c1.80762 1.80762 2.71094 4.04297 2.71094 6.70703zM291.96 143.768l5.13672 130.997
c0 2.2832 -0.951172 4.09082 -2.85449 5.42285c-2.47266 2.09277 -4.75684 3.13867 -6.84961 3.13867h-62.7861c-2.09375 0 -4.37598 -1.0459 -6.84961 -3.13867c-1.90332 -1.33203 -2.85352 -3.33008 -2.85352 -5.99414l4.85156 -130.426
c0 -1.90332 0.950195 -3.47168 2.85352 -4.70898c1.90332 -1.23828 4.18652 -1.85547 6.84961 -1.85547h52.7979c2.66406 0 4.89941 0.617188 6.70703 1.85547c1.80664 1.2373 2.80664 2.80664 2.99707 4.70898v0zM287.964 410.327l219.185 -401.837
c6.6582 -11.9873 6.46875 -23.9736 -0.571289 -35.96c-3.23535 -5.51758 -7.6582 -9.89355 -13.2715 -13.1289s-11.6543 -4.85156 -18.1221 -4.85156h-438.367c-6.46973 0 -12.5107 1.61621 -18.123 4.85156c-5.61328 3.23535 -10.0371 7.61133 -13.2715 13.1289
c-7.04004 11.9863 -7.22949 23.9727 -0.571289 35.96l219.185 401.837c3.23438 5.89844 7.7041 10.5596 13.4121 13.9854c5.70801 3.4248 11.8916 5.13672 18.5518 5.13672c6.6582 0 12.8428 -1.71289 18.5508 -5.13672c5.70898 -3.42578 10.1797 -8.08691 13.4141 -13.9854
v0z" />
    <glyph glyph-name="uniF103" unicode="&#xf103;" 
d="M402.285 256c0 -4.95215 -1.80957 -9.23828 -5.42773 -12.8574l-128 -128c-3.61914 -3.61816 -7.90527 -5.42773 -12.8574 -5.42773s-9.23828 1.80957 -12.8574 5.42773l-128 128c-3.61816 3.61914 -5.42773 7.90527 -5.42773 12.8574s1.80957 9.23828 5.42773 12.8574
c3.61914 3.61816 7.90527 5.42773 12.8574 5.42773h256c4.95215 0 9.23828 -1.80957 12.8574 -5.42773c3.61816 -3.61914 5.42773 -7.90527 5.42773 -12.8574v0z" />
    <glyph glyph-name="uniF104" unicode="&#xf104;" 
d="M402.285 128c0 -4.95215 -1.80957 -9.23828 -5.42773 -12.8574c-3.61914 -3.61816 -7.90527 -5.42773 -12.8574 -5.42773h-256c-4.95215 0 -9.23828 1.80957 -12.8574 5.42773c-3.61816 3.61914 -5.42773 7.90527 -5.42773 12.8574s1.80957 9.23828 5.42773 12.8574
l128 128c3.61914 3.61816 7.90527 5.42773 12.8574 5.42773s9.23828 -1.80957 12.8574 -5.42773l128 -128c3.61816 -3.61914 5.42773 -7.90527 5.42773 -12.8574z" />
    <glyph glyph-name="uniF105" unicode="&#xf105;" 
d="M402.285 137.143c0 -4.95215 -1.80957 -9.23926 -5.42773 -12.8574l-128 -127.999c-3.61914 -3.61914 -7.90527 -5.42871 -12.8574 -5.42871s-9.23828 1.80957 -12.8574 5.42871l-128 127.999c-3.61816 3.61816 -5.42773 7.90527 -5.42773 12.8574
s1.80957 9.23828 5.42773 12.8574c3.61914 3.61914 7.90527 5.42871 12.8574 5.42871h256c4.95215 0 9.23828 -1.80957 12.8574 -5.42871c3.61816 -3.61914 5.42773 -7.90527 5.42773 -12.8574v0zM402.285 246.857c0 -4.95312 -1.80957 -9.23926 -5.42773 -12.8574
c-3.61914 -3.61914 -7.90527 -5.42871 -12.8574 -5.42871h-256c-4.95215 0 -9.23828 1.80957 -12.8574 5.42871c-3.61816 3.61914 -5.42773 7.90527 -5.42773 12.8574c0 4.95117 1.80957 9.2373 5.42773 12.8564l128 128c3.61914 3.61914 7.90527 5.42871 12.8574 5.42871
s9.23828 -1.80957 12.8574 -5.42871l128 -128c3.61816 -3.61914 5.42773 -7.9043 5.42773 -12.8564z" />
    <glyph glyph-name="uniF106" unicode="&#xf106;" 
d="M256 36.5713v310.857c-28.1904 0 -54.1904 -6.95312 -78 -20.8574s-42.666 -32.7617 -56.5713 -56.5713s-20.8574 -49.8096 -20.8574 -78s6.95312 -54.1904 20.8574 -78s32.7617 -42.667 56.5713 -56.5713c23.8096 -13.9053 49.8096 -20.8574 78 -20.8574zM475.429 192
c0 -39.8096 -9.80957 -76.5234 -29.4287 -110.143s-46.2383 -60.2383 -79.8574 -79.8574s-70.333 -29.4287 -110.143 -29.4287s-76.5244 9.80957 -110.143 29.4287c-33.6191 19.6191 -60.2383 46.2383 -79.8574 79.8574s-29.4287 70.333 -29.4287 110.143
s9.80957 76.5244 29.4287 110.143c19.6191 33.6191 46.2383 60.2383 79.8574 79.8574c33.6182 19.6191 70.333 29.4287 110.143 29.4287s76.5234 -9.80957 110.143 -29.4287s60.2383 -46.2383 79.8574 -79.8574c19.6191 -33.6182 29.4287 -70.333 29.4287 -110.143z" />
    <glyph glyph-name="uniF107" unicode="&#xf107;" 
d="M475.429 192c0 -39.8096 -9.80957 -76.5234 -29.4287 -110.143s-46.2383 -60.2383 -79.8574 -79.8574s-70.333 -29.4287 -110.143 -29.4287s-76.5244 9.80957 -110.143 29.4287c-33.6191 19.6191 -60.2383 46.2383 -79.8574 79.8574s-29.4287 70.333 -29.4287 110.143
s9.80957 76.5244 29.4287 110.143c19.6191 33.6191 46.2383 60.2383 79.8574 79.8574c33.6182 19.6191 70.333 29.4287 110.143 29.4287s76.5234 -9.80957 110.143 -29.4287s60.2383 -46.2383 79.8574 -79.8574c19.6191 -33.6182 29.4287 -70.333 29.4287 -110.143z" />
    <glyph glyph-name="uniF108" unicode="&#xf108;" 
d="M457.143 219.429v-54.8584c0 -7.61816 -2.66602 -14.0938 -8 -19.4277c-5.33301 -5.33301 -11.8096 -8 -19.4287 -8h-347.429c-7.61914 0 -14.0947 2.66699 -19.4277 8c-5.33398 5.33398 -8 11.8096 -8 19.4277v54.8584c0 7.61816 2.66602 14.0938 8 19.4277
c5.33301 5.33301 11.8086 8 19.4277 8h347.429c7.61816 0 14.0947 -2.66699 19.4277 -8c5.33496 -5.33301 8.00098 -11.8086 8.00098 -19.4277v0z" />
    <glyph glyph-name="uniF109" unicode="&#xf109;" 
d="M451.143 387.429v0c16.1914 -16.1904 24.2861 -35.6191 24.2852 -58.2861v-274.285c0 -22.667 -8.09473 -42 -24.2852 -58c-16 -16.1914 -35.333 -24.2861 -58 -24.2861h-274.285c-22.667 0 -42.0947 8.09473 -58.2852 24.2861c-16 16 -24 35.333 -24 58v274.285
c0 22.667 8.04785 42.0479 24.1426 58.1426c16.0947 16.0957 35.4766 24.1436 58.1426 24.1436h274.285c22.667 0 42 -8 58 -24zM214.857 9.14258v0c23.0479 0 44.5703 6.04883 64.5723 18.1445c20 12.0938 35.2393 28.1426 45.7148 48.1426l-22 43.7148
c-2.09668 -21.7148 -11.667 -39.9541 -28.7148 -54.7148c-17.0479 -14.7617 -36.9053 -22.1426 -59.5723 -22.1426c-24.7617 0 -45.9043 8.47461 -63.4277 25.4277c-17.5244 16.9512 -26.2861 37.333 -26.2861 61.1426c0 15.0459 3.66699 29.1426 11 42.2852
c7.33398 13.1426 17.4766 23.6191 30.4277 31.4277l-2.57129 35.7148c-21.9043 -9.52344 -39.4756 -24.1904 -52.7139 -44s-19.8574 -41.4287 -19.8574 -64.8564c0 -21.5254 5.52441 -41.5713 16.5723 -60.1436c11.0469 -18.5723 26.0469 -33.2383 45 -44
c18.9512 -10.7607 39.5713 -16.1426 61.8564 -16.1426zM356.572 45.7148l64 27.4277l-9.14258 27.4277l-36.5723 -18.2852l-45.7148 109.715h-109.715v18.2861h73.1426v36.5713h-82.2842l-9.14355 64c8.57227 0.571289 15.8096 3.85742 21.7148 9.85742
s8.85742 13.2852 8.85742 21.8564c0 8.7627 -3.23828 16.333 -9.71484 22.7139c-6.47559 6.38086 -14.2852 9.57227 -23.4277 9.57227c-9.14355 0 -17 -3.19141 -23.5723 -9.57227c-6.57129 -6.37988 -9.85645 -13.9512 -9.85645 -22.7139
c0 -6.09473 1.33301 -11.4287 4 -16l13.7139 -162h118.857z" />
    <glyph glyph-name="uniF10A" unicode="&#xf10a;" 
d="M315.766 113.172l29.2383 -58.4756c-11.083 -34.207 -31.1484 -61.916 -60.1963 -83.1279c-29.0469 -21.2119 -61.4375 -31.8184 -97.1738 -31.8184c-29.8105 0 -57.376 7.40527 -82.6982 22.2158c-25.3203 14.8096 -45.3848 34.875 -60.1953 60.1963
s-22.2148 52.8857 -22.2148 82.6973c0 34.5889 9.98438 66.1201 29.9551 94.5938c19.9688 28.4736 46.1973 48.6348 78.6836 60.4824l4.87305 -37.5508c-23.3135 -10.3193 -41.9453 -26.1328 -55.8955 -47.4404c-13.9502 -21.3066 -20.9248 -44.6689 -20.9248 -70.085
c0 -35.3535 12.5645 -65.5938 37.6934 -90.7236c25.1299 -25.1299 55.3711 -37.6943 90.7246 -37.6943c24.0781 0 46.2939 6.21094 66.6455 18.6328c20.3525 12.4209 36.1182 29.1904 47.2979 50.3057c11.1777 21.1162 15.9082 43.7139 14.1875 67.792v0zM472.849 84.5068
l16.626 -32.6768l-73.3828 -36.6904c-2.48438 -1.33887 -5.25488 -2.00781 -8.3125 -2.00781c-7.64453 0 -13.0898 3.34473 -16.3389 10.0322l-68.5088 136.731h-135.297c-4.58594 0 -8.64746 1.57617 -12.1826 4.72949s-5.58984 7.02344 -6.16309 11.6094l-27.5176 223.299
c-0.382812 3.05762 0.19043 7.07031 1.71973 12.0391c2.6748 9.74609 8.12109 17.6289 16.3379 23.6484c8.21777 6.01953 17.4863 9.0293 27.8047 9.0293c12.6133 0 23.4102 -4.49121 32.3916 -13.4727s13.4717 -19.7783 13.4717 -32.3906
c0 -13.1865 -4.96875 -24.4131 -14.9053 -33.6816c-9.93652 -9.26758 -21.4033 -13.2334 -34.3975 -11.8955l10.6064 -82.8408h121.251v-36.6914h-116.665l4.58594 -36.6904h130.426c7.64355 0 13.0898 -3.34473 16.3389 -10.0322l65.3555 -130.426l56.7559 28.3779v0z" />
    <glyph glyph-name="uniF10B" unicode="&#xf10b;" 
d="M256 36.5713v310.857c-28.1904 0 -54.1904 -6.95312 -78 -20.8574s-42.666 -32.7617 -56.5713 -56.5713s-20.8574 -49.8096 -20.8574 -78s6.95312 -54.1904 20.8574 -78s32.7617 -42.667 56.5713 -56.5713c23.8096 -13.9053 49.8096 -20.8574 78 -20.8574zM475.429 192
c0 -39.8096 -9.80957 -76.5234 -29.4287 -110.143s-46.2383 -60.2383 -79.8574 -79.8574s-70.333 -29.4287 -110.143 -29.4287s-76.5244 9.80957 -110.143 29.4287c-33.6191 19.6191 -60.2383 46.2383 -79.8574 79.8574s-29.4287 70.333 -29.4287 110.143
s9.80957 76.5244 29.4287 110.143c19.6191 33.6191 46.2383 60.2383 79.8574 79.8574c33.6182 19.6191 70.333 29.4287 110.143 29.4287s76.5234 -9.80957 110.143 -29.4287s60.2383 -46.2383 79.8574 -79.8574c19.6191 -33.6182 29.4287 -70.333 29.4287 -110.143z" />
    <glyph glyph-name="uniF10C" unicode="&#xf10c;" 
d="M255.999 281.904l65.9551 -100.403h-131.908l65.9531 100.403v0zM375.763 108.001h30.8398l-150.604 226.731l-150.608 -226.731h30.8428l34.126 52.501h171.277l34.126 -52.501v0zM508 192c0 -45.7207 -11.2725 -87.8857 -33.7988 -126.49
c-22.5361 -38.6094 -53.1025 -69.1807 -91.7158 -91.7119c-38.6045 -22.5312 -80.7695 -33.7939 -126.486 -33.7939c-45.7188 0 -87.8848 11.2627 -126.49 33.7939c-38.6094 22.5312 -69.1807 53.1025 -91.7119 91.7119c-22.5312 38.6045 -33.7969 80.7695 -33.7969 126.49
c0 45.7188 11.2656 87.8818 33.7969 126.49c22.5312 38.6094 53.1025 69.1807 91.7109 91.7109c38.6064 22.5312 80.7725 33.7949 126.49 33.7949c45.7168 0 87.8828 -11.2637 126.487 -33.7949c38.6143 -22.5303 69.1787 -53.1016 91.7158 -91.7109
c22.5264 -38.6084 33.7988 -80.7715 33.7988 -126.49v0z" />
    <glyph glyph-name="uniF10D" unicode="&#xf10d;" 
d="M109.715 9.14258h292.571v219.429h-118.857c-7.61914 0 -14.0957 2.66699 -19.4287 8c-5.33301 5.33398 -8 11.8096 -8 19.4287v118.857h-146.285v-365.715v0zM292.571 265.143h85.4287l-85.4287 85.4287v-85.4287zM438.857 228.571v-228.571
c0 -7.61914 -2.66699 -14.0947 -8 -19.4287c-5.33398 -5.33301 -11.8096 -8 -19.4287 -8h-310.857c-7.61914 0 -14.0947 2.66699 -19.4287 8c-5.33301 5.33398 -8 11.8096 -8 19.4287v384c0 7.61914 2.66699 14.0947 8 19.4287c5.33398 5.33301 11.8096 8 19.4287 8h155.429
c7.61914 0 16 -1.90527 25.1426 -5.71484c9.14355 -3.80957 16.3818 -8.38086 21.7158 -13.7139l116.571 -116.572c5.33301 -5.33301 9.90527 -12.5713 13.7148 -21.7139c3.80957 -9.14355 5.71289 -17.5234 5.71289 -25.1426v0zM244 265.143h2.85547v-9.14355
c0 -1.9043 0.19043 -4 0.572266 -6.28516c-0.381836 0.19043 -0.760742 0.285156 -1.14258 0.285156c-1.33301 0 -1.90527 -4.85742 -1.71484 -14.5713c0 -10.666 1.04785 -19.6191 3.14258 -26.8574c3.42969 6.09473 5.04883 13.2373 4.85742 21.4277
c0 2.47656 -0.19043 4.8584 -0.572266 7.14355c1.71387 -2.85742 3.52344 -5.23828 5.42871 -7.14355c2.66602 -2.66602 5.9043 -4.85742 9.71387 -6.57129c-0.951172 -9.52344 -2.37891 -20 -4.28418 -31.4287c0 -0.378906 -0.0947266 -0.808594 -0.286133 -1.28516
c-0.19043 -0.475586 -0.28418 -0.90332 -0.28418 -1.28418c5.71387 -15.0479 13.7139 -27.4287 24 -37.1436c2.47656 -2.28711 6 -4.85742 10.5713 -7.71582c9.33301 1.14355 19.0469 1.71582 29.1426 1.71582h1.42871c16 0 26.8574 -2.85742 32.5713 -8.57227
c3.04688 -3.23926 4.85645 -6.57227 5.42871 -10c0.951172 -8.57031 -0.287109 -15.6182 -3.71582 -21.1436c-2.66602 -3.80859 -6.38086 -6.38086 -11.1426 -7.71387c-2.28418 -0.760742 -5.0459 -1.14258 -8.28418 -1.14258c-7.23926 0 -15.8096 1.57227 -25.7158 4.71484
c-9.9043 3.1416 -19.5234 7.19043 -28.8574 12.1416c-21.7139 -3.42871 -43.4268 -8.66602 -65.1426 -15.7139c-10.666 -18.8574 -20.1416 -32.4307 -28.4277 -40.7148c-8.28516 -8.28516 -16.4277 -12.4287 -24.4277 -12.4287
c-3.61914 0 -7.14453 0.857422 -10.5723 2.57227l-5.14258 2.57227c-3.04785 1.71289 -5.23828 4.18945 -6.57129 7.42773c-1.33301 3.23926 -1.61914 6.7627 -0.857422 10.5723c1.33398 6.09473 5.04785 12.4756 11.1436 19.1426
c6.09473 6.66699 14.0947 12.9521 24 18.8574c3.42871 2.28711 7.33301 4.47754 11.7148 6.57227l2.85645 1.71484c4.95215 8.38086 10 17.9053 15.1436 28.5713l0.856445 1.42871c8.19043 16.1904 13.9043 28.5703 17.1436 37.1426l0.857422 2
c-7.81152 31.4287 -10 53.7139 -6.57227 66.8564c1.14258 4.19141 3.57129 7.57227 7.28516 10.1436c3.71484 2.57129 8.04785 3.85645 13 3.85645zM166.857 63.7148c7.80859 3.61914 17.7139 15.2373 29.7139 34.8564c-2.66699 -2.47656 -4.28516 -4 -4.85742 -4.57129
c-6.28613 -5.14258 -11.666 -10.5703 -16.1426 -16.2852c-4.47559 -5.71484 -7.38086 -10.3809 -8.71387 -14zM327.429 126.857c-4 0 -8.47656 -0.191406 -13.4287 -0.572266c13.7139 -5.90527 23.4287 -8.85645 29.1426 -8.85645
c3.23828 0 5.52441 0.380859 6.85742 1.1416c0.380859 0.381836 0.620117 0.905273 0.713867 1.57227c0.0957031 0.666992 -0.427734 1.52344 -1.57129 2.57227c-1.14258 1.04688 -2.85645 1.85547 -5.14258 2.42773c-4.7627 1.14258 -10.2871 1.71484 -16.5713 1.71484z
M246.571 167.715v0c-4.38086 -11.2393 -9.52344 -22.5723 -15.4277 -34c-1.90527 -4 -4.76172 -9.42773 -8.57227 -16.2852c15.4287 6.09473 33.1426 11.1416 53.1426 15.1416c-1.52344 1.14355 -2.85645 2.19043 -4 3.14355c-9.90332 8.57227 -18.2842 19.2393 -25.1426 32
z" />
    <glyph glyph-name="uniF10E" unicode="&#xf10e;" 
d="M512 45.7139v-36.5713c0 -4.95215 -1.80957 -9.23926 -5.42871 -12.8564c-3.61816 -3.61914 -7.90527 -5.42871 -12.8564 -5.42871h-475.43c-4.95215 0 -9.2373 1.80957 -12.8564 5.42871c-3.61914 3.61816 -5.42871 7.9043 -5.42871 12.8564v36.5713
c0 4.95312 1.80957 9.23926 5.42871 12.8574c3.61914 3.61914 7.90527 5.42871 12.8564 5.42871h475.428c4.95215 0 9.23926 -1.80957 12.8584 -5.42871s5.42871 -7.9043 5.42871 -12.8574v0zM402.285 155.429v-36.5723c0 -4.95312 -1.80957 -9.23926 -5.42773 -12.8584
c-3.61914 -3.61816 -7.90527 -5.42773 -12.8574 -5.42773h-256c-4.95215 0 -9.23828 1.80957 -12.8574 5.42773c-3.61816 3.61914 -5.42773 7.90527 -5.42773 12.8584v36.5723c0 4.95117 1.80957 9.23828 5.42773 12.8574c3.61914 3.61816 7.90527 5.42676 12.8574 5.42676
h256c4.95215 0 9.23828 -1.80859 12.8574 -5.42676c3.61816 -3.61914 5.42773 -7.90527 5.42773 -12.8574zM475.429 265.143v-36.5723c0 -4.95117 -1.80957 -9.23828 -5.42871 -12.8564s-7.90527 -5.42773 -12.8574 -5.42773h-402.285
c-4.95312 0 -9.23828 1.80957 -12.8574 5.42773s-5.42871 7.90527 -5.42871 12.8564v36.5723c0 4.95312 1.80957 9.23828 5.42871 12.8574s7.90527 5.42871 12.8574 5.42871h402.285c4.95215 0 9.23828 -1.80957 12.8574 -5.42871s5.42871 -7.90527 5.42871 -12.8574z
M365.715 374.857v-36.5723c0 -4.95215 -1.80957 -9.2373 -5.42773 -12.8564c-3.62012 -3.61914 -7.90625 -5.42871 -12.8584 -5.42871h-182.857c-4.95117 0 -9.2373 1.80957 -12.8555 5.42871c-3.61914 3.61914 -5.42871 7.90527 -5.42871 12.8564v36.5723
c0 4.95215 1.80957 9.2373 5.42871 12.8564s7.9043 5.42871 12.8555 5.42871h182.858c4.95117 0 9.23828 -1.80957 12.8574 -5.42871c3.61816 -3.61914 5.42773 -7.9043 5.42773 -12.8564z" />
    <glyph glyph-name="uniF10F" unicode="&#xf10f;" 
d="M512 45.7139v-36.5713c0 -4.95215 -1.80957 -9.23926 -5.42871 -12.8564c-3.61816 -3.61914 -7.90527 -5.42871 -12.8564 -5.42871h-475.43c-4.95215 0 -9.2373 1.80957 -12.8564 5.42871c-3.61914 3.61816 -5.42871 7.9043 -5.42871 12.8564v36.5713
c0 4.95312 1.80957 9.23926 5.42871 12.8574c3.61914 3.61914 7.90527 5.42871 12.8564 5.42871h475.428c4.95215 0 9.23926 -1.80957 12.8584 -5.42871s5.42871 -7.9043 5.42871 -12.8574v0zM512 155.429v-36.5723c0 -4.95312 -1.80957 -9.23926 -5.42871 -12.8584
c-3.61816 -3.61816 -7.90527 -5.42773 -12.8564 -5.42773h-475.43c-4.95215 0 -9.2373 1.80957 -12.8564 5.42773c-3.61914 3.62109 -5.42871 7.90625 -5.42871 12.8594v36.5723c0 4.95117 1.80957 9.23926 5.42871 12.8574s7.90527 5.42773 12.8564 5.42773h475.428
c4.95215 0 9.23926 -1.80859 12.8584 -5.42773s5.42871 -7.90625 5.42871 -12.8584v0zM512 265.143v-36.5723c0 -4.95117 -1.80957 -9.23828 -5.42871 -12.8564c-3.61816 -3.61816 -7.90527 -5.42773 -12.8564 -5.42773h-475.43
c-4.95215 0 -9.2373 1.80957 -12.8564 5.42773c-3.61914 3.62012 -5.42871 7.90527 -5.42871 12.8574v36.5723c0 4.95312 1.80957 9.23828 5.42871 12.8574s7.90527 5.42871 12.8564 5.42871h475.428c4.95215 0 9.23926 -1.80957 12.8584 -5.42871
c3.61914 -3.62012 5.42871 -7.90625 5.42871 -12.8584v0zM512 374.857v-36.5723c0 -4.95215 -1.80957 -9.2373 -5.42871 -12.8564c-3.61816 -3.61914 -7.90527 -5.42871 -12.8564 -5.42871h-475.43c-4.95215 0 -9.2373 1.80957 -12.8564 5.42871
s-5.42871 7.90527 -5.42871 12.8564v36.5723c0 4.95215 1.80957 9.2373 5.42871 12.8564s7.90527 5.42871 12.8564 5.42871h475.428c4.95215 0 9.23926 -1.80957 12.8584 -5.42871s5.42871 -7.9043 5.42871 -12.8564v0z" />
    <glyph glyph-name="uniF110" unicode="&#xf110;" 
d="M512 45.7139v-36.5713c0 -4.95215 -1.80957 -9.23926 -5.42871 -12.8564c-3.61816 -3.61914 -7.90527 -5.42871 -12.8564 -5.42871h-475.43c-4.95215 0 -9.2373 1.80957 -12.8564 5.42871c-3.61914 3.61816 -5.42871 7.9043 -5.42871 12.8564v36.5713
c0 4.95312 1.80957 9.23926 5.42871 12.8574c3.61914 3.61914 7.90527 5.42871 12.8564 5.42871h475.428c4.95215 0 9.23926 -1.80957 12.8584 -5.42871s5.42871 -7.9043 5.42871 -12.8574v0zM402.285 155.429v-36.5723c0 -4.95312 -1.80957 -9.23926 -5.42773 -12.8584
c-3.61914 -3.61816 -7.90527 -5.42773 -12.8574 -5.42773h-365.715c-4.95215 0 -9.2373 1.80957 -12.8564 5.42773c-3.61914 3.62109 -5.42871 7.90625 -5.42871 12.8594v36.5723c0 4.95117 1.80957 9.23926 5.42871 12.8574s7.90527 5.42773 12.8564 5.42773h365.715
c4.95215 0 9.23828 -1.80859 12.8574 -5.42773c3.61816 -3.62012 5.42773 -7.90625 5.42773 -12.8584zM475.429 265.143v-36.5723c0 -4.95117 -1.80957 -9.23828 -5.42871 -12.8564s-7.90527 -5.42773 -12.8574 -5.42773h-438.857
c-4.95215 0 -9.2373 1.80957 -12.8564 5.42773c-3.61914 3.62012 -5.42871 7.90527 -5.42871 12.8574v36.5723c0 4.95312 1.80957 9.23828 5.42871 12.8574s7.90527 5.42871 12.8564 5.42871h438.857c4.95215 0 9.23828 -1.80957 12.8574 -5.42871
s5.42871 -7.90625 5.42871 -12.8584zM365.715 374.857v-36.5723c0 -4.95215 -1.80957 -9.2373 -5.42773 -12.8564c-3.62012 -3.61914 -7.90625 -5.42871 -12.8584 -5.42871h-329.144c-4.95215 0 -9.2373 1.80957 -12.8564 5.42871s-5.42871 7.90527 -5.42871 12.8564
v36.5723c0 4.95215 1.80957 9.2373 5.42871 12.8564s7.90527 5.42871 12.8564 5.42871h329.144c4.95117 0 9.23828 -1.80957 12.8574 -5.42871s5.42871 -7.9043 5.42871 -12.8564v0z" />
    <glyph glyph-name="uniF111" unicode="&#xf111;" 
d="M512 45.7139v-36.5713c0 -4.95215 -1.80957 -9.23926 -5.42871 -12.8564c-3.61816 -3.61914 -7.90527 -5.42871 -12.8564 -5.42871h-475.43c-4.95215 0 -9.2373 1.80957 -12.8564 5.42871c-3.61914 3.61816 -5.42871 7.9043 -5.42871 12.8564v36.5713
c0 4.95312 1.80957 9.23926 5.42871 12.8574c3.61914 3.61914 7.90527 5.42871 12.8564 5.42871h475.428c4.95215 0 9.23926 -1.80957 12.8584 -5.42871s5.42871 -7.9043 5.42871 -12.8574v0zM512 155.429v-36.5723c0 -4.95312 -1.80957 -9.23926 -5.42871 -12.8584
c-3.61816 -3.61816 -7.90527 -5.42773 -12.8564 -5.42773h-365.715c-4.95215 0 -9.23828 1.80957 -12.8574 5.42773c-3.61816 3.61914 -5.42773 7.90527 -5.42773 12.8584v36.5723c0 4.95117 1.80957 9.23828 5.42773 12.8574
c3.61914 3.61816 7.90527 5.42676 12.8574 5.42676h365.715c4.95117 0 9.23828 -1.80859 12.8564 -5.42676c3.61914 -3.61914 5.42871 -7.90527 5.42871 -12.8574zM512 265.143v-36.5723c0 -4.95117 -1.80957 -9.23828 -5.42871 -12.8564
c-3.61816 -3.61816 -7.90527 -5.42773 -12.8564 -5.42773h-438.857c-4.95312 0 -9.23828 1.80957 -12.8574 5.42773s-5.42871 7.90527 -5.42871 12.8564v36.5723c0 4.95312 1.80957 9.23828 5.42871 12.8574s7.90527 5.42871 12.8574 5.42871h438.856
c4.95215 0 9.23926 -1.80957 12.8574 -5.42871c3.61914 -3.61914 5.42871 -7.90527 5.42871 -12.8574zM512 374.857v-36.5723c0 -4.95215 -1.80957 -9.2373 -5.42871 -12.8564c-3.61816 -3.61914 -7.90527 -5.42871 -12.8564 -5.42871h-329.144
c-4.95117 0 -9.2373 1.80957 -12.8555 5.42871c-3.61914 3.61914 -5.42871 7.90527 -5.42871 12.8564v36.5723c0 4.95215 1.80957 9.2373 5.42871 12.8564s7.9043 5.42871 12.8555 5.42871h329.144c4.95117 0 9.23828 -1.80957 12.8564 -5.42871
c3.61914 -3.61914 5.42871 -7.9043 5.42871 -12.8564z" />
    <glyph glyph-name="uniF112" unicode="&#xf112;" 
d="M475.429 329.143v-274.285c0 -22.667 -8.0957 -42 -24.2861 -58c-16 -16.1914 -35.333 -24.2861 -58 -24.2861h-274.285c-22.667 0 -42.0957 8.09473 -58.2861 24.2861c-16 16 -24 35.333 -24 58v274.285c0 22.667 8.04785 42.0479 24.1436 58.1436
c16.0947 16.0957 35.4766 24.1426 58.1426 24.1426h274.285c22.667 0 42 -8 58 -24c16.1904 -16.1904 24.2861 -35.6191 24.2861 -58.2861zM73.1426 99.1426c0 -1.14258 0.666992 -2.19043 2 -3.14258c24.7617 -22.0947 52.5723 -39.0479 83.4277 -50.8574
c30.8584 -11.8086 63.335 -17.7139 97.4287 -17.7139c22.667 0 45.7148 3.09375 69.1426 9.28418s44.5723 14.8096 63.4277 25.8574c5.90625 3.42773 11.0488 6.76172 15.4287 10c3.04785 2.09473 3.66602 4.47656 1.85742 7.14258
c-1.80957 2.66699 -4.42773 3.33398 -7.85742 2c-0.572266 -0.19043 -1.42871 -0.571289 -2.57227 -1.14258c-1.14258 -0.572266 -2.42773 -1.1416 -3.85742 -1.71484c-1.42773 -0.571289 -2.42773 -0.952148 -3 -1.14258c-41.9053 -16 -84.7607 -24 -128.572 -24
c-65.1426 0 -125.428 15.9062 -180.856 47.7158c-2.47656 1.71387 -4.28613 1.61816 -5.42871 -0.286133c-0.376953 -0.952148 -0.568359 -1.61816 -0.568359 -2v0zM232.285 135.143c6.66699 0 12.1426 0.238281 16.4277 0.714844s9.19043 1.57227 14.7148 3.28516
c5.52441 1.71484 11 4.57227 16.4277 8.57227c5.42871 4 11.0947 9.23926 17 15.7148c0.380859 -0.381836 0.761719 -0.858398 1.14258 -1.42773c0.381836 -0.570312 0.905273 -1.33398 1.57227 -2.28613c0.666016 -0.951172 1.28516 -1.80859 1.85742 -2.57129
c2.66699 -3.61914 4.38184 -5.80957 5.14258 -6.57324c4.19141 -4.95117 8.47559 -9.2373 12.8574 -12.8564c3.61816 -1.71484 6.85742 -1.52441 9.71484 0.572266c1.52344 1.14258 11.5234 9.71484 30 25.7148c1.71484 1.52344 2.57227 3.04785 2.57227 4.57227
c0 1.52344 -0.666992 3.33301 -2 5.42773c-2.09473 2.47559 -4.66699 5.80957 -7.71484 10c-1.71484 2.47559 -3.33398 6.09473 -4.85742 10.8574c-1.52344 4.76074 -2.28516 9.71484 -2.28516 14.8564v79.7139c0 9.14258 -0.476562 15.0469 -1.42773 17.7139
c-0.572266 2.66602 -1.23926 5.23828 -2 7.71484c-0.952148 3.80957 -1.90625 6.66602 -2.8584 8.57129c-3.23828 5.14258 -6.85645 9.71387 -10.8564 13.7139c-14.2852 12.9521 -34 19.4287 -59.1436 19.4287h-8.28418
c-20.9521 -1.14355 -38.5244 -6.61914 -52.7158 -16.4287c-14.1904 -9.80957 -23.0938 -24.0479 -26.7139 -42.7139c-0.19043 -0.761719 -0.286133 -1.52441 -0.286133 -2.28613c0 -3.04785 1.90625 -5.04785 5.71582 -6l38.2842 -4.57129
c3.23926 0.571289 5.42871 3.04688 6.57227 7.42773c1.33398 6.85742 4.61914 12.2861 9.8584 16.2861c5.23828 4 11.666 6.38086 19.2852 7.14258h2.57129c10.0947 0 17.0947 -2.85645 21 -8.57129c3.90625 -5.71484 5.85742 -15.6191 5.85742 -29.7148v-5.42773
c-1.33301 -0.19043 -4.61816 -0.476562 -9.85742 -0.857422c-5.23828 -0.380859 -8.57129 -0.666016 -10 -0.856445c-1.42773 -0.191406 -4.38086 -0.524414 -8.85645 -1c-4.47656 -0.476562 -7.66699 -0.857422 -9.57227 -1.14355
c-1.90625 -0.286133 -4.71484 -0.761719 -8.42773 -1.42871c-3.71484 -0.666016 -6.80957 -1.38086 -9.28613 -2.14258c-2.47559 -0.761719 -5.28516 -1.66699 -8.42773 -2.71387c-3.14258 -1.04785 -6.23926 -2.14355 -9.28516 -3.28613
c-13.333 -5.52344 -23.667 -13.7148 -31 -24.5723s-11 -23.8096 -11 -38.8574c0 -18.667 5.38086 -33.2861 16.1436 -43.8574c10.7588 -10.5703 24.8057 -15.8564 42.1387 -15.8564zM289.715 240.571v-23.1416c-0.572266 -9.52539 -3.14355 -18.0947 -7.71484 -25.7158
c-4.95215 -9.52344 -12.1904 -15.4277 -21.7148 -17.7148c-0.952148 0 -1.71484 -0.19043 -2.28516 -0.571289c-0.952148 -0.191406 -1.90527 -0.285156 -2.85742 -0.285156c-7.42773 0 -13.2852 2.57129 -17.5723 7.71484c-4.28516 5.1416 -6.42773 12 -6.42773 20.5723
c0 5.33301 0.666992 10.0469 2 14.1416s3 7.52441 5 10.2861s4.66699 5.09473 8 7s6.52344 3.38086 9.57227 4.42773c3.04785 1.04785 6.80859 1.80957 11.2852 2.28516c4.47559 0.476562 8.23828 0.761719 11.2852 0.858398
c3.04785 0.0957031 6.85742 0.142578 11.4297 0.142578v0zM370.571 93.1426c0.572266 -0.380859 1.52539 -0.572266 2.8584 -0.572266c12.3809 1.71484 21.9053 2.57227 28.5723 2.57227c10.0947 0 16.2852 -1.33301 18.5723 -4
c0.950195 -0.761719 1.42578 -2.47656 1.42578 -5.14258c0 -7.61914 -4.09473 -20.8574 -12.2852 -39.7148c-0.761719 -1.71484 -0.476562 -2.95117 0.856445 -3.71484c0.19043 -0.19043 0.666992 -0.285156 1.42871 -0.285156c1.14258 0 2.09473 0.476562 2.85742 1.42773
c7.23926 6.09473 13.0479 14.2393 17.4277 24.4287s6.57227 19.4756 6.57227 27.8564v2.28613c0 2.66699 -0.476562 4.57129 -1.42871 5.71387c-1.9043 2.28613 -7.9043 4 -18 5.14355c-2.47559 0.380859 -4.57129 0.475586 -6.28516 0.28418
c-16.5723 -0.380859 -30.0947 -4.09375 -40.5723 -11.1416c-0.951172 -1.14258 -1.61816 -2.09473 -2 -2.8584c-0.380859 -1.14062 -0.380859 -1.90137 0 -2.2832z" />
    <glyph glyph-name="uniF113" unicode="&#xf113;" 
d="M19.1426 70.8574c1.52344 2.47656 3.80957 2.66699 6.85742 0.572266c72 -42.4756 150.381 -63.7148 235.143 -63.7148c56.9521 0 112.761 10.666 167.429 32c0.571289 0.19043 1.80859 0.714844 3.71387 1.57227s3.61914 1.57227 5.14355 2.14258
c1.52344 0.572266 2.57129 1.04785 3.14258 1.42773c4.38086 1.90527 7.76074 1.04785 10.1416 -2.57227c2.38184 -3.61914 1.57227 -6.85645 -2.42773 -9.71484c-5.52344 -4.19043 -12.0947 -8.57227 -19.7148 -13.1416
c-24.7607 -14.667 -52.3799 -26.1436 -82.8555 -34.4287c-30.4766 -8.28516 -60.3809 -12.4287 -89.7148 -12.4287c-44.3809 0 -86.6191 7.90625 -126.715 23.7158c-40.0947 15.8096 -76.2373 38.2842 -108.428 67.4277c-1.71484 1.33301 -2.57227 2.85645 -2.57227 4.57227
c0 0.570312 0.286133 1.42773 0.857422 2.57031v0zM149.143 196c0 19.8096 4.80957 36.9521 14.4277 51.4287c9.61914 14.4756 23.0947 25.4277 40.4287 32.8555c3.80957 1.52441 7.80957 3 12 4.42871s7.85742 2.61914 11 3.57129
c3.14258 0.953125 7.19043 1.90527 12.1426 2.85742s8.61816 1.61914 11 2s6.47656 0.905273 12.2861 1.57129c5.80762 0.666992 9.66602 1.09473 11.5713 1.28516c1.90527 0.191406 6.28516 0.572266 13.1426 1.14355s11.0479 0.952148 12.5723 1.14258v7.42773
c0 18.667 -2.57227 31.8096 -7.71484 39.4287s-14.0947 11.4287 -26.8574 11.4287h-3.42773c-9.90527 -0.953125 -18.2852 -4.0957 -25.1436 -9.42871c-6.85645 -5.33398 -11.1416 -12.5713 -12.8564 -21.7139c-1.52441 -5.90527 -4.47656 -9.23828 -8.85742 -10l-49.7148 6
c-4.76172 1.33301 -7.14258 4 -7.14258 8c0 1.14258 0.09375 2.19043 0.285156 3.14258c3.23828 16.7617 9.85742 31 19.8574 42.7139c10 11.7148 22 20.3809 36 26s29.8574 9 47.5723 10.1436h10.8564c32.3818 0 58 -8.66699 76.8584 -26
c5.1416 -5.14355 9.71387 -11.2383 13.7139 -18.2861c1.33398 -2.47656 2.66699 -6.28516 4 -11.4287c0.761719 -3.23828 1.61914 -6.57129 2.57227 -10c1.14258 -3.61914 1.71582 -11.5234 1.71582 -23.7148v-106.285c0 -7.04785 1 -13.7148 3 -20
c2 -6.28418 4.1416 -11.0479 6.42676 -14.2842c3.80957 -5.33398 7.14258 -9.80957 10 -13.4287c1.71484 -2.66699 2.57324 -5.04785 2.57324 -7.14258c0 -2.28613 -1.14355 -4.38184 -3.42871 -6.28613c-23.8096 -20.9512 -36.7617 -32.2842 -38.8574 -34
c-3.61816 -2.85645 -7.80859 -3.1416 -12.5723 -0.856445c-5.90527 4.95215 -11.5244 10.5723 -16.8574 16.8564c-0.952148 1.14355 -3.14258 4.0957 -6.57227 8.8584c-0.951172 1.33301 -2.09473 2.95117 -3.42773 4.85742
c-1.33301 1.90527 -2.19043 3.04785 -2.57227 3.42773c-7.80859 -8.57227 -15.2383 -15.4766 -22.2852 -20.7148s-14.1426 -9.04785 -21.2852 -11.4287c-7.1416 -2.38086 -13.4756 -3.90527 -19 -4.57129c-5.52441 -0.666992 -12.5723 -1 -21.1416 -1
c-22.8584 0 -41.2861 7.09473 -55.2861 21.2852c-14.002 14.1914 -21.002 33.7637 -21.002 58.7158v0zM223.715 204.857c0 -11.4277 2.80957 -20.6191 8.42773 -27.5723c5.61914 -6.95117 13.0938 -10.4277 22.4277 -10.4277c1.52441 0 2.8584 0.19043 4 0.572266
c0.952148 0.380859 2 0.572266 3.14258 0.572266c12.1904 3.04785 21.5234 10.8574 28 23.4277c5.90625 10.0947 9.23926 21.5234 10 34.2852v31.1426c-5.90527 0 -10.8574 -0.0478516 -14.8574 -0.143555s-8.90527 -0.523438 -14.7148 -1.28516
c-5.80859 -0.762695 -10.666 -1.80957 -14.5723 -3.14355c-3.90527 -1.33301 -8.04688 -3.28516 -12.4277 -5.85645c-4.38184 -2.57129 -7.85645 -5.66699 -10.4277 -9.28516c-2.57227 -3.61914 -4.71484 -8.19043 -6.42773 -13.7148
c-1.71387 -5.52344 -2.57031 -11.7139 -2.57031 -18.5713v0zM405.143 63.4287c0.191406 0.760742 1.04785 1.90527 2.57227 3.42773c13.333 9.52344 30.9512 14.4756 52.8564 14.8564c1.90625 0.381836 4.57324 0.285156 8 -0.28418
c12.9531 -1.33398 20.7617 -3.52539 23.4287 -6.57324c1.14258 -1.52344 1.71484 -4.19043 1.71484 -7.99902v-3.14355c0 -10.8564 -2.85742 -23.1426 -8.57227 -36.8564c-5.71387 -13.7148 -13.2393 -24.667 -22.5713 -32.8584
c-1.14258 -1.1416 -2.47656 -1.71387 -4 -1.71387c-0.761719 0 -1.33496 0.19043 -1.71582 0.571289c-1.71387 0.761719 -2.09375 2.38184 -1.14258 4.85742c10.667 24.9521 16 42.5723 16 52.8574c0 3.61816 -0.571289 6 -1.71484 7.14258
c-3.04785 3.42871 -11.1426 5.14258 -24.2852 5.14258c-8.76074 0 -21.1416 -1.14258 -37.1426 -3.42773c-1.71484 0 -2.85742 0.285156 -3.42773 0.857422c-0.380859 0.380859 -0.618164 0.714844 -0.713867 1s0 0.666992 0.28418 1.14258
c0.287109 0.476562 0.429688 0.810547 0.429688 1.00098v0z" />
    <glyph glyph-name="uniF114" unicode="&#xf114;" 
d="M162.134 55.4668c0 9.42285 -3.33301 17.4678 -10 24.1348c-6.66699 6.66602 -14.7109 10 -24.1338 10s-17.4668 -3.33398 -24.1338 -10c-6.66602 -6.66699 -10 -14.7119 -10 -24.1348c0 -9.42188 3.33398 -17.4668 10 -24.1338
c6.66699 -6.66602 14.7109 -10 24.1338 -10s17.4668 3.33398 24.1338 10c6.66699 6.66699 10 14.7119 10 24.1338zM59.7334 192h102.4v68.2666h-42.1338c-2.48926 -0.355469 -4.44434 -1.15527 -5.86621 -2.40039l-52 -52
c-1.24512 -2.13379 -2.04492 -4.08984 -2.40039 -5.86621v-8zM401.067 55.4668c0 9.42285 -3.33398 17.4678 -10 24.1348c-6.66699 6.66602 -14.7119 10 -24.1338 10c-9.42383 0 -17.4678 -3.33398 -24.1348 -10c-6.66699 -6.66699 -10 -14.7119 -10 -24.1348
c0 -9.42188 3.33301 -17.4668 10 -24.1338c6.66699 -6.66602 14.7109 -10 24.1348 -10c9.42188 0 17.4668 3.33398 24.1338 10c6.66602 6.66699 10 14.7119 10 24.1338v0zM435.2 234.666v51.2002c0 2.48926 -0.800781 4.5332 -2.40137 6.13379
c-1.59863 1.59961 -3.64453 2.40039 -6.13379 2.40039h-59.7314v59.7334c0 2.48828 -0.801758 4.53223 -2.40039 6.13281c-1.59961 1.60059 -3.64453 2.40039 -6.13379 2.40039h-51.1992c-2.48926 0 -4.5332 -0.799805 -6.13477 -2.40039
c-1.60059 -1.59961 -2.39941 -3.64453 -2.39941 -6.13281v-59.7334h-59.7324c-2.48926 0 -4.5332 -0.800781 -6.13477 -2.40039c-1.59863 -1.59961 -2.39941 -3.64453 -2.39941 -6.13379v-51.2002c0 -2.48828 0.800781 -4.53223 2.39941 -6.13281
c1.60059 -1.60059 3.64453 -2.40137 6.13477 -2.40137h59.7334v-59.7314c0 -2.49023 0.799805 -4.53223 2.40039 -6.13477c1.59961 -1.59961 3.64453 -2.39941 6.13379 -2.39941h51.1992c2.48926 0 4.5332 0.799805 6.13477 2.39941
c1.59863 1.60059 2.39941 3.64453 2.39941 6.13477v59.7334h59.7334c2.49023 0 4.5332 0.800781 6.13477 2.40039c1.59766 1.59961 2.39746 3.64355 2.39746 6.13184v0zM503.467 379.733v-307.199c0 -4.62207 -1.68848 -8.62207 -5.06641 -12
c-3.37793 -3.37891 -7.37793 -5.06738 -12 -5.06738h-51.2002c0 -18.8447 -6.66699 -34.9326 -20 -48.2656c-13.334 -13.333 -29.4238 -20 -48.2666 -20c-18.8447 0 -34.9336 6.66699 -48.2666 20s-20 29.4219 -20 48.2656h-102.4
c0 -18.8447 -6.66699 -34.9326 -20 -48.2656s-29.4219 -20 -48.2666 -20c-18.8438 0 -34.9326 6.66699 -48.2666 20c-13.333 13.333 -20 29.4219 -20 48.2656h-34.1338c-4.62207 0 -8.62207 1.68848 -12 5.06738c-3.37793 3.37793 -5.06641 7.37793 -5.06641 12
c0 4.62109 1.68848 8.62109 5.06641 12c3.37793 3.37793 7.37793 5.06738 12 5.06738v110.932c0 4.62305 1.15625 9.77832 3.46777 15.4668c2.31055 5.68945 5.15527 10.2227 8.53223 13.6006l52.8008 52.7998c3.37793 3.37793 7.91016 6.22168 13.5996 8.5332
s10.8438 3.4668 15.4668 3.4668h42.667v85.334c0 4.62207 1.68848 8.62207 5.06738 12c3.37793 3.37695 7.37793 5.06641 12 5.06641h307.199c4.62207 0 8.62207 -1.68848 12 -5.06641c3.37793 -3.37891 5.06641 -7.37891 5.06641 -12.001z" />
    <glyph glyph-name="uniF115" unicode="&#xf115;" 
d="M274.275 372.471c0 4.94922 -1.80859 9.23242 -5.42578 12.8496c-3.61621 3.61719 -7.90039 5.42578 -12.8496 5.42578s-9.2334 -1.80859 -12.8496 -5.42578s-5.42676 -7.90039 -5.42676 -12.8496s1.80859 -9.2334 5.42676 -12.8496
c3.61621 -3.61719 7.90039 -5.42578 12.8496 -5.42578s9.2334 1.80859 12.8496 5.42578c3.61719 3.61719 5.42578 7.90039 5.42578 12.8496zM511.286 85.7744c-1.52344 -3.80762 -4.37891 -5.71191 -8.56641 -5.71191h-31.9834
c0 -26.0801 -9.46973 -49.9717 -28.4121 -71.6738c-18.9424 -21.7031 -44.832 -38.7881 -77.6719 -51.2588c-32.8389 -12.4688 -69.0557 -18.7041 -108.653 -18.7041s-75.8145 6.23633 -108.653 18.7041c-32.8389 12.4688 -58.7295 29.5547 -77.6709 51.2588
c-18.9414 21.7012 -28.4131 45.5938 -28.4131 71.6738h-31.9814c-4.1875 0 -7.04297 1.9043 -8.56641 5.71191c-1.52246 3.61621 -0.856445 6.94727 1.99902 9.99316l63.9648 63.9648c1.90332 1.71387 4.09277 2.57031 6.56738 2.57031
c2.28516 0 4.47363 -0.856445 6.56836 -2.57031l63.9639 -63.9648c2.85547 -3.0459 3.52148 -6.37695 1.99902 -9.99316c-1.52246 -3.80762 -4.37793 -5.71191 -8.56641 -5.71191h-31.9824c0 -16.1807 10.709 -31.6494 32.125 -46.4023
c21.417 -14.7539 48.7812 -24.3213 82.0977 -28.6982v184.754h-54.8281c-4.94922 0 -9.23242 1.80859 -12.8496 5.42676c-3.61719 3.61621 -5.42578 7.90039 -5.42578 12.8496v36.5518c0 4.94922 1.80859 9.2334 5.42578 12.8496
c3.61719 3.61719 7.90039 5.42578 12.8496 5.42578h54.8271v46.5459c-11.042 6.47266 -19.8936 15.2773 -26.5566 26.4131c-6.66309 11.1367 -9.99414 23.3682 -9.99414 36.6943c0 20.1787 7.13867 37.4072 21.417 51.6855c14.2773 14.2773 31.5059 21.415 51.6846 21.415
s37.4072 -7.13867 51.6855 -21.416c14.2783 -14.2783 21.416 -31.5068 21.416 -51.6855c0 -13.3252 -3.33008 -25.5576 -9.99316 -36.6943c-6.66309 -11.1357 -15.5146 -19.9404 -26.5566 -26.4131v-46.5459h54.8271c4.94824 0 9.23242 -1.80859 12.8486 -5.42578
c3.61719 -3.61621 5.42676 -7.90039 5.42676 -12.8496v-36.5518c0 -4.94922 -1.80762 -9.2334 -5.42676 -12.8496c-3.61621 -3.61621 -7.90039 -5.42676 -12.8486 -5.42676h-54.8281v-184.754c33.3164 4.37891 60.6807 13.9443 82.0977 28.6982
c21.416 14.7529 32.125 30.2197 32.125 46.4023h-31.9824c-4.18848 0 -7.04395 1.9043 -8.56641 5.71191c-1.52344 3.61621 -0.857422 6.94727 1.99805 9.99316l63.9648 63.9648c2.09375 1.71387 4.2832 2.57031 6.56738 2.57031
c2.28516 0 4.47363 -0.856445 6.56836 -2.57031l63.9648 -63.9648c2.85449 -3.04492 3.52148 -6.37598 1.99805 -9.99219v0z" />
    <glyph glyph-name="uniF116" unicode="&#xf116;" 
d="M444.143 287.81c8.66699 0 16.0479 -3.14258 22.1426 -9.42773c6.09473 -6.28613 9.14355 -13.8096 9.14355 -22.5723v-128c0 -8.7627 -3.04883 -16.2861 -9.14355 -22.5723c-6.09473 -6.28418 -13.4756 -9.42773 -22.1426 -9.42773s-16.0479 3.1416 -22.1426 9.42773
c-6.09473 6.28711 -9.14258 13.8115 -9.14258 22.5723v128c0 8.7627 3.04785 16.2861 9.14258 22.5723c6.09473 6.28516 13.4756 9.42773 22.1426 9.42773zM67.8574 287.81c8.66602 0 16.0469 -3.14258 22.1426 -9.42773c6.0957 -6.28613 9.14258 -13.8096 9.14258 -22.5723
v-128c0 -8.7627 -3.04688 -16.2861 -9.14258 -22.5723c-6.0957 -6.28418 -13.4766 -9.42773 -22.1426 -9.42773c-8.66699 0 -16.0479 3.14258 -22.1436 9.42773c-6.0957 6.28711 -9.14258 13.8115 -9.14258 22.5723v128c0 8.7627 3.04785 16.2861 9.14258 22.5723
c6.0957 6.28516 13.4766 9.42773 22.1436 9.42773zM114.857 79.8096v0v176h282.285v-176c0 -13.333 -4.61914 -24.666 -13.8574 -34c-9.2373 -9.33301 -20.333 -14 -33.2852 -14h-15.7158v-64c0 -8.7627 -3.04883 -16.2861 -9.14258 -22.5723
c-6.09473 -6.28418 -13.4766 -9.42773 -22.1426 -9.42773c-8.66699 0 -16.0488 3.14258 -22.1436 9.42773c-6.09375 6.28711 -9.14258 13.8115 -9.14258 22.5723v64h-31.4277v-64c0 -8.7627 -3.04883 -16.2861 -9.14258 -22.5723
c-6.09473 -6.28418 -13.4756 -9.42773 -22.1426 -9.42773s-16.0479 3.14258 -22.1426 9.42773c-6.09473 6.28711 -9.14355 13.8115 -9.14355 22.5723v64h-15.7139c-12.9521 0 -24.0479 4.66699 -33.2861 14c-9.23828 9.33398 -13.8564 20.667 -13.8564 34zM314 402.952v0
c22.4756 -10.2852 41.0947 -25.666 55.8574 -46.1436c14.7617 -20.4756 23.5703 -43.4756 26.4277 -69h-280.571c2.85742 25.5244 11.667 48.5244 26.4287 69c14.7617 20.4766 33.3809 35.8574 55.8574 46.1436l-20 39.1426
c-1.14258 2.28613 -0.570312 4.04785 1.71387 5.28613c2.28516 1.23828 4.09473 0.619141 5.42871 -1.85645l20 -39.4287c16.3809 6.47656 33.333 9.71387 50.8574 9.71387c17.5234 0 34.4756 -3.2373 50.8574 -9.71387l20 39.4287
c1.33301 2.47559 3.14258 3.04785 5.42773 1.71387c2.28613 -1.14258 2.85742 -2.85645 1.71484 -5.14258zM193.428 312.667c6.28711 0 11.6201 2.23828 16 6.71484c4.38184 4.47559 6.57227 9.95215 6.57227 16.4277c0 6.47656 -2.19043 11.9521 -6.57227 16.4287
s-9.71484 6.71387 -16 6.71387s-11.666 -2.2373 -16.1426 -6.71387c-4.47656 -4.47559 -6.71484 -9.95215 -6.71484 -16.4287c0 -6.47559 2.23828 -11.9521 6.71484 -16.4277c4.47656 -4.47656 9.85742 -6.71484 16.1426 -6.71484zM318.571 312.667
c6.28613 0 11.667 2.23828 16.1436 6.71484c4.47559 4.47559 6.71484 9.95215 6.71484 16.4277c0 6.47656 -2.23926 11.9521 -6.71484 16.4287c-4.47656 4.47656 -9.85742 6.71387 -16.1436 6.71387c-6.28418 0 -11.6182 -2.2373 -16 -6.71387
c-4.38086 -4.47559 -6.57129 -9.95215 -6.57129 -16.4287c0 -6.47559 2.19043 -11.9521 6.57129 -16.4277c4.38184 -4.47656 9.71582 -6.71484 16 -6.71484z" />
    <glyph glyph-name="uniF117" unicode="&#xf117;" 
d="M398.571 251.429c0 -2.47656 -0.951172 -4.66699 -2.85742 -6.57129l-133.143 -133.144c-1.9043 -1.9043 -4.09375 -2.85645 -6.57129 -2.85645c-2.47559 0 -4.66602 0.952148 -6.57129 2.85645l-133.144 133.144c-1.9043 1.90625 -2.85645 4.09473 -2.85645 6.57129
s0.952148 4.66699 2.85645 6.57129l14.2861 14.2861c1.9043 1.90527 4.09473 2.85645 6.57129 2.85645c2.47559 0 4.66602 -0.952148 6.57129 -2.85645l112.286 -112.286l112.285 112.285c1.90625 1.90527 4.09473 2.85742 6.57324 2.85742
c2.47559 0 4.66602 -0.952148 6.57227 -2.85742l14.2842 -14.2852c1.9043 -1.90527 2.85645 -4.09473 2.85645 -6.57129v0z" />
    <glyph glyph-name="uniF118" unicode="&#xf118;" 
d="M339.143 310.857c0 -2.47656 -0.952148 -4.66699 -2.85742 -6.57227l-112.285 -112.285l112.285 -112.285c1.90527 -1.90527 2.85742 -4.09473 2.85742 -6.57227s-0.952148 -4.66699 -2.85742 -6.57227l-14.2852 -14.2852
c-1.90527 -1.90527 -4.09473 -2.85645 -6.57129 -2.85645s-4.66699 0.951172 -6.57324 2.85645l-133.142 133.144c-1.90527 1.90527 -2.85742 4.09375 -2.85742 6.57129s0.952148 4.66699 2.85742 6.57227l133.143 133.143c1.90625 1.90527 4.09473 2.85742 6.57324 2.85742
c2.47461 0 4.66602 -0.952148 6.57129 -2.85742l14.2852 -14.2852c1.9043 -1.90527 2.85645 -4.0957 2.85645 -6.57227v0z" />
    <glyph glyph-name="uniF119" unicode="&#xf119;" 
d="M339.143 192c0 -2.47559 -0.952148 -4.66602 -2.85645 -6.57129l-133.144 -133.144c-1.90527 -1.90527 -4.09473 -2.85645 -6.57227 -2.85645c-2.47461 0 -4.66602 0.951172 -6.57129 2.85645l-14.2852 14.2852c-1.90527 1.90527 -2.85742 4.09473 -2.85742 6.57227
s0.952148 4.66699 2.85742 6.57227l112.286 112.285l-112.285 112.285c-1.90527 1.90527 -2.85742 4.0957 -2.85742 6.57227s0.952148 4.66699 2.85742 6.57129l14.2852 14.2861c1.90527 1.9043 4.09473 2.85645 6.57129 2.85645
c2.47754 0 4.66699 -0.952148 6.57227 -2.85645l133.144 -133.144c1.90332 -1.9043 2.85547 -4.09473 2.85547 -6.57129v0z" />
    <glyph glyph-name="uniF11A" unicode="&#xf11a;" 
d="M398.571 132.571c0 -2.47461 -0.951172 -4.66602 -2.85742 -6.57129l-14.2842 -14.2852c-1.90527 -1.90527 -4.09473 -2.85742 -6.57227 -2.85742c-2.47656 0 -4.66699 0.952148 -6.57227 2.85742l-112.285 112.285l-112.286 -112.285
c-1.90527 -1.90527 -4.09473 -2.85742 -6.57129 -2.85742s-4.66699 0.952148 -6.57129 2.85742l-14.2861 14.2852c-1.9043 1.90527 -2.85645 4.09473 -2.85645 6.57129s0.952148 4.66699 2.85645 6.57227l133.145 133.144c1.90527 1.90527 4.09375 2.85742 6.57129 2.85742
s4.66699 -0.952148 6.57129 -2.85742l133.143 -133.144c1.9043 -1.90527 2.85645 -4.0957 2.85645 -6.57227v0z" />
    <glyph glyph-name="uniF11B" unicode="&#xf11b;" 
d="M356.571 305.143v-172.285c0 -4.95215 -1.57129 -9.42773 -4.71387 -13.4277s-7.28613 -7.14258 -12.4277 -9.42773c-9.71484 -4.38184 -19.2393 -6.57227 -28.5723 -6.57227c-9.33398 0 -18.8574 2.18945 -28.5723 6.57031
c-5.14258 2.28516 -9.28516 5.42871 -12.4277 9.42871s-4.71484 8.47461 -4.71484 13.4268s1.57227 9.47656 4.71484 13.5732c3.14258 4.09375 7.28516 7.28418 12.4277 9.57129c9.90527 4.38086 19.4277 6.57129 28.5723 6.57129c9.90527 0 19.0479 -2 27.4277 -6v82.5713
l-109.715 -36.5723v-109.142c0 -4.95312 -1.57227 -9.42871 -4.71484 -13.4287s-7.28516 -7.14258 -12.4277 -9.42871c-9.71289 -4.38086 -19.2373 -6.57129 -28.5703 -6.57129c-9.33398 0 -18.8574 2.19043 -28.5723 6.57129
c-5.14258 2.28613 -9.28516 5.42871 -12.4277 9.42871c-3.14355 4 -4.71484 8.47559 -4.71484 13.4287c0 4.95117 1.57227 9.47461 4.71484 13.5713c3.1416 4.0957 7.28516 7.28516 12.4277 9.57129c9.90527 4.38281 19.4277 6.57324 28.5723 6.57324
c9.90527 0 19.0479 -2 27.4277 -6v148.57c0 3.23828 0.905273 6.19043 2.71484 8.85742c1.80957 2.66602 4.14258 4.47559 7 5.42773l118.857 39.4287c1.14258 0.380859 2.47559 0.571289 4 0.571289c3.80859 0 7.04785 -1.42773 9.71387 -4.28516
c2.66699 -2.85645 4 -6.38086 4 -10.5723zM475.429 192c0 -39.8096 -9.80957 -76.5244 -29.4287 -110.143c-19.6191 -33.6191 -46.2383 -60.2383 -79.8574 -79.8574s-70.333 -29.4287 -110.143 -29.4287s-76.5244 9.80957 -110.143 29.4287
c-33.6191 19.6191 -60.2383 46.2383 -79.8574 79.8574c-19.6191 33.6182 -29.4287 70.333 -29.4287 110.143s9.80957 76.5244 29.4287 110.143c19.6191 33.6191 46.2383 60.2393 79.8574 79.8574c33.6182 19.6191 70.333 29.4287 110.143 29.4287
s76.5234 -9.80957 110.143 -29.4287s60.2383 -46.2383 79.8574 -79.8574c19.6191 -33.6182 29.4287 -70.333 29.4287 -110.143zM438.857 192c0 33.1426 -8.19141 63.7148 -24.5723 91.7148c-16.3818 28 -38.5723 50.1904 -66.5723 66.5713
s-58.5723 24.5713 -91.7148 24.5713s-63.7139 -8.19043 -91.7139 -24.5713s-50.1904 -38.5713 -66.5723 -66.5713s-24.5723 -58.5723 -24.5723 -91.7148s8.19043 -63.7148 24.5723 -91.7148c16.3809 -28 38.5713 -50.1904 66.5723 -66.5723
c28 -16.3809 58.5723 -24.5713 91.7148 -24.5713s63.7148 8.19043 91.7148 24.5723s50.1904 38.5723 66.5723 66.5723c16.3809 28 24.5713 58.5713 24.5713 91.7139z" />
    <glyph glyph-name="uniF11C" unicode="&#xf11c;" 
d="M378.623 178.297c0 -8.95215 1.14258 -17.4287 3.43555 -25.4248c2.28516 -8 5 -14.8096 8.14258 -20.4287c3.14258 -5.61816 6.95215 -10.9521 11.4277 -16c4.47656 -5.04785 8.57129 -9.04785 12.2852 -12c3.71484 -2.95215 7.66699 -5.66699 11.8574 -8.14258
c4.19141 -2.47559 7.0957 -4.0957 8.71484 -4.85742c1.61914 -0.760742 3.09473 -1.42773 4.42773 -2c-7.80859 -23.2373 -18.1904 -44 -31.1426 -62.2842c-4.7627 -6.8584 -8.62012 -12.2383 -11.5723 -16.1436c-2.95312 -3.90527 -6.85742 -8.57227 -11.7148 -14
c-4.85645 -5.42969 -9.38086 -9.62012 -13.5713 -12.5723c-4.19043 -2.9541 -9.04883 -5.52344 -14.5723 -7.71484c-5.52441 -2.19043 -11.2373 -3.38086 -17.1436 -3.57129c-6.66602 -0.191406 -13.1904 0.618164 -19.5713 2.42676
c-6.38086 1.80957 -11.7148 3.80957 -16 6c-4.28516 2.19141 -9.90527 4.2373 -16.8574 6.14355c-6.95215 1.90527 -14.2393 2.85645 -21.8574 2.85645c-9.71484 0 -18.666 -1.42676 -26.8564 -4.28516c-8.19238 -2.85645 -16.0967 -5.76172 -23.7158 -8.71484
c-7.61816 -2.95117 -15.2383 -4.61816 -22.8564 -5c-5.71484 -0.19043 -11.4277 0.80957 -17.1436 3c-5.71484 2.19141 -10.7607 4.9043 -15.1426 8.14355c-4.38086 3.2373 -9.14258 7.66602 -14.2861 13.2852c-5.14258 5.61816 -9.33301 10.5713 -12.5713 14.8574
c-3.23828 4.28516 -7.23828 9.66699 -12 16.1426c-9.9043 14.2861 -18.6191 30.4775 -26.1426 48.5713c-7.52344 18.0957 -13.2861 37.0957 -17.2861 57c-4 19.9053 -4.85645 40.1436 -2.57129 60.7148c2.28613 20.5723 8.19141 38.8574 17.7148 54.8574
c9.9043 16.7617 23.0947 30.0469 39.5713 39.8564c16.4756 9.80957 34.2373 14.9053 53.2852 15.2861c8.37988 0.19043 17.4756 -1.33398 27.2852 -4.57227c9.80957 -3.2373 18.9053 -6.47656 27.2852 -9.71387c8.37988 -3.23828 14.8564 -4.85742 19.4287 -4.85742
c3.80859 0 9.19043 1.19043 16.1416 3.57129c6.95215 2.38184 13.7617 4.95312 20.4277 7.71484c6.66797 2.76172 14.6191 5.14258 23.8584 7.14258c9.23828 2 17.7627 2.61914 25.5723 1.85742c4.95215 -0.380859 10.1904 -1.09473 15.7139 -2.14258
c5.52441 -1.04785 12.3828 -2.95215 20.5723 -5.71484c8.18848 -2.76172 16.333 -7.2373 24.4277 -13.4277c8.0957 -6.19043 15.2871 -13.667 21.5723 -22.4287h-0.285156c-2.28516 -1.52441 -4.66602 -3.0957 -7.14258 -4.71484
c-2.47559 -1.61914 -6.42969 -5.09473 -11.8574 -10.4277s-10.0947 -10.8574 -14 -16.5723s-7.42969 -13.2383 -10.5723 -22.5723c-3.14258 -9.33301 -4.71484 -19.0488 -4.71484 -29.1436zM322.052 341.297v0c-8.19043 -9.80859 -18.333 -17.667 -30.4268 -23.5713
c-12.0957 -5.9043 -24.1436 -8.38086 -36.1436 -7.42871c-1.52344 11.8096 0.0478516 23.8096 4.71484 36c4.66602 12.1904 11 22.8574 19 32c8.19141 9.14355 18.4756 16.8574 30.8584 23.1436c12.3789 6.28516 24.1885 9.61816 35.4268 10
c1.33398 -12.3818 -0.19043 -24.7148 -4.57129 -37c-4.38184 -12.2861 -10.667 -23.334 -18.8584 -33.1436z" />
    <glyph glyph-name="uniF11D" unicode="&#xf11d;" 
d="M314.154 211.384c0 5.25098 -1.9209 9.79297 -5.75293 13.6309c-3.84082 3.83691 -8.38281 5.75488 -13.6348 5.75488h-77.5381c-5.24707 0 -9.79297 -1.91797 -13.6299 -5.75488c-3.83691 -3.83594 -5.75293 -8.37793 -5.75293 -13.6309
c0 -5.25 1.91602 -9.79395 5.75293 -13.6279c3.83594 -3.83691 8.38281 -5.75586 13.6299 -5.75586h77.5381c5.25195 0 9.79395 1.91895 13.6348 5.75586c3.83203 3.83398 5.75293 8.37793 5.75293 13.6279zM488.616 269.537v-290.767
c0 -5.25098 -1.91992 -9.79297 -5.75781 -13.6299s-8.37988 -5.75293 -13.6309 -5.75293h-426.456c-5.25195 0 -9.79395 1.91602 -13.6309 5.75293s-5.75684 8.37891 -5.75684 13.6299v290.767c0 5.25 1.91992 9.79395 5.75684 13.6309s8.37891 5.75293 13.6309 5.75293
h426.458c5.25098 0 9.79297 -1.91602 13.6299 -5.75293s5.75684 -8.38086 5.75684 -13.6309zM508 405.229v-77.5371c0 -5.25098 -1.9209 -9.79297 -5.75684 -13.6299c-3.83301 -3.83691 -8.37891 -5.75586 -13.627 -5.75586h-465.232
c-5.24805 0 -9.79395 1.91895 -13.6309 5.75586c-3.83203 3.83691 -5.75293 8.37891 -5.75293 13.6299v77.5371c0 5.25 1.9209 9.79395 5.75293 13.6309c3.83691 3.83691 8.38281 5.75293 13.6309 5.75293h465.233c5.24707 0 9.79297 -1.91699 13.626 -5.75293
c3.83594 -3.83594 5.75684 -8.38086 5.75684 -13.6309z" />
    <glyph glyph-name="uniF11E" unicode="&#xf11e;" 
d="M478.571 202.715c0 -10.0947 -3.52344 -18.667 -10.5713 -25.7148l-186 -186.285c-7.42871 -7.04785 -16.0947 -10.5723 -26 -10.5723c-10.0947 0 -18.666 3.52441 -25.7148 10.5723l-186 186.285c-7.2373 6.85742 -10.8564 15.4287 -10.8564 25.7148
c0 10.0947 3.61914 18.7617 10.8564 26l21.1436 21.4277c7.42871 7.04883 16.0947 10.5723 26 10.5723c10.0947 0 18.666 -3.52344 25.7139 -10.5723l84 -84v201.144c0 9.90527 3.61914 18.4766 10.8574 25.7139c7.23828 7.23926 15.8096 10.8574 25.7148 10.8574h36.5723
c9.90527 0 18.4756 -3.61914 25.7148 -10.8574c7.2373 -7.2373 10.8564 -15.8086 10.8564 -25.7139v-201.144l84 84c7.04785 7.04785 15.6191 10.5713 25.7158 10.5713c9.9043 0 18.5723 -3.52344 26 -10.5713l21.4258 -21.4277
c7.04785 -7.42871 10.5713 -16.0957 10.5713 -26v0z" />
    <glyph glyph-name="uniF11F" unicode="&#xf11f;" 
d="M466.286 210.285v-36.5723c0 -10.0938 -3.0957 -18.7148 -9.28613 -25.8564c-6.19043 -7.14355 -14.2383 -10.7148 -24.1426 -10.7148h-201.144l83.7158 -84c7.23828 -6.85742 10.8564 -15.4287 10.8564 -25.7148s-3.61816 -18.8574 -10.8564 -25.7148l-21.4297 -21.7119
c-7.04785 -7.04785 -15.6191 -10.5713 -25.7148 -10.5713c-9.90527 0 -18.5723 3.52344 -26 10.5713l-186 186.285c-7.04688 7.04883 -10.5713 15.6201 -10.5713 25.7148c0 9.90625 3.52441 18.5732 10.5713 26l186 185.715c7.23926 7.23828 15.9053 10.8564 26 10.8564
c9.90625 0 18.4766 -3.61816 25.7148 -10.8564l21.4287 -21.1436c7.23926 -7.2373 10.8564 -15.9053 10.8564 -26s-3.61719 -18.7617 -10.8564 -26l-83.7148 -83.7139h201.144c9.90527 0 17.9521 -3.57227 24.1426 -10.7148s9.28613 -15.7617 9.28613 -25.8574v0z" />
    <glyph glyph-name="uniF120" unicode="&#xf120;" 
d="M466.285 192c0 -10.2852 -3.52344 -18.9521 -10.5723 -26l-186 -186c-7.42773 -7.04785 -16.0938 -10.5713 -26 -10.5713c-9.71387 0 -18.2842 3.52344 -25.7139 10.5713l-21.4287 21.4287c-7.23828 7.23828 -10.8564 15.9053 -10.8564 26
c0 10.0938 3.61816 18.7607 10.8564 26l83.7148 83.7139h-201.143c-9.9043 0 -17.9521 3.57227 -24.1426 10.7148s-9.28516 15.7617 -9.28516 25.8574v36.5723c0 10.0938 3.09473 18.7148 9.28516 25.8574s14.2383 10.7139 24.1426 10.7139h201.144l-83.7139 84
c-7.23926 6.85742 -10.8584 15.4287 -10.8584 25.7148s3.61914 18.8574 10.8584 25.7139l21.4277 21.4277c7.23828 7.23828 15.8096 10.8564 25.7148 10.8564c10.0947 0 18.7607 -3.61816 26 -10.8564l186 -186c7.04688 -6.66699 10.5703 -15.2383 10.5703 -25.7148z" />
    <glyph glyph-name="uniF121" unicode="&#xf121;" 
d="M478.571 179.715c0 -9.71484 -3.52344 -18.2852 -10.5713 -25.7148l-21.4287 -21.4287c-7.2373 -7.23828 -15.9053 -10.8564 -26 -10.8564c-10.2842 0 -18.8564 3.61816 -25.7139 10.8564l-84 83.7158v-201.144c0 -9.90625 -3.57227 -17.9521 -10.7148 -24.1426
c-7.14258 -6.19141 -15.7617 -9.28613 -25.8574 -9.28613h-36.5723c-10.0938 0 -18.7148 3.09473 -25.8574 9.28516c-7.14258 6.19141 -10.7148 14.2393 -10.7148 24.1426v201.143l-83.998 -83.7139c-6.85742 -7.23828 -15.4277 -10.8564 -25.7139 -10.8564
s-18.8574 3.61816 -25.7148 10.8564l-21.4287 21.4287c-7.2373 7.23828 -10.8564 15.8096 -10.8564 25.7148c0 10.0947 3.61914 18.7607 10.8564 26l186 186c6.66699 7.04688 15.2393 10.5713 25.7148 10.5713c10.2852 0 18.9521 -3.52441 26 -10.5713l186 -186
c7.04785 -7.42969 10.5713 -16.0957 10.5713 -26z" />
    <glyph glyph-name="uniF122" unicode="&#xf122;" 
d="M441.715 148c8.76074 -4.95215 14.4277 -12.333 17 -22.1426s1.38184 -19.0947 -3.57227 -27.8574l-18.2852 -31.4287c-4.95215 -8.76074 -12.333 -14.4277 -22.1426 -17c-9.80957 -2.57129 -19.0947 -1.38086 -27.8574 3.57227l-76 43.7158v-87.7158
c0 -9.90527 -3.61914 -18.4746 -10.8574 -25.7139s-15.8096 -10.8584 -25.7148 -10.8584h-36.5723c-9.90527 0 -18.4766 3.61914 -25.7148 10.8584c-7.23926 7.23926 -10.8574 15.8086 -10.8574 25.7139v87.7158l-76 -43.7158
c-8.76172 -4.95117 -18.0469 -6.1416 -27.8564 -3.57227c-9.80957 2.57227 -17.1904 8.23926 -22.1436 17l-18.2832 31.4287c-4.95312 8.76172 -6.14355 18.0479 -3.57227 27.8574c2.57227 9.80957 8.23828 17.1904 17 22.1426l76 44l-76 44
c-8.76172 4.95215 -14.4277 12.334 -17 22.1426c-2.57129 9.80957 -1.38086 19.0957 3.57227 27.8574l18.2852 31.4287c4.95215 8.76172 12.333 14.4287 22.1426 17s19.0957 1.38086 27.8574 -3.57129l76 -43.7148v87.7148c0 9.9043 3.61914 18.4756 10.8574 25.7139
s15.8096 10.8564 25.7148 10.8564h36.5723c9.90527 0 18.4756 -3.61914 25.7148 -10.8564c7.2373 -7.23828 10.8564 -15.8096 10.8564 -25.7139v-87.7148l76 43.7148c8.76172 4.95215 18.0479 6.14258 27.8574 3.57129s17.1914 -8.23828 22.1426 -17l18.2842 -31.4287
c4.95215 -8.76172 6.14258 -18.0479 3.57227 -27.8574c-2.57129 -9.80859 -8.23926 -17.1904 -17 -22.1426l-76 -44z" />
    <glyph glyph-name="uniF123" unicode="&#xf123;" 
d="M27.4287 326.857l201.143 -65.4287v-288l-201.143 68.2861v285.143zM283.429 -27.4287v289.715l201.142 62.5713v-283.143zM256 292.571l-192 62.8574l191.714 56l183.144 -56z" />
    <glyph glyph-name="uniF124" unicode="&#xf124;" 
d="M463.428 407.714c3.61816 3.61914 6.66699 4.85742 9.14258 3.71484s3.71484 -4.19043 3.71484 -9.14355v-420.57c0 -4.95117 -1.23926 -8 -3.71484 -9.14258s-5.52441 0.0947266 -9.14258 3.71484l-202.856 202.855c-1.52344 1.71484 -2.76074 3.52441 -3.71387 5.42773
v-202.856c0 -4.95117 -1.23926 -8 -3.71484 -9.1416c-2.47656 -1.14355 -5.52441 0.09375 -9.14258 3.71387l-202.857 202.856c-3.61816 3.61914 -5.42773 7.90527 -5.42773 12.8574s1.80957 9.23926 5.42773 12.8574l202.857 202.856
c3.61816 3.61914 6.66602 4.85742 9.14258 3.71484c2.47559 -1.14258 3.71484 -4.19043 3.71484 -9.14355v-202.856c0.951172 2.09375 2.19043 3.90527 3.71387 5.42773l202.856 202.857v0z" />
    <glyph glyph-name="uniF125" unicode="&#xf125;" 
d="M411.428 192.143c0 30.667 -8.28516 58.7617 -24.8574 84.2861l-215.428 -215.144c26.0947 -16.9521 54.3809 -25.4277 84.8574 -25.4277c21.1426 0 41.2852 4.14258 60.4277 12.4277s35.667 19.3818 49.5723 33.2852c13.9053 13.9043 24.9521 30.5244 33.1426 49.8584
c8.19043 19.333 12.2852 39.5713 12.2852 60.7139zM126 106.714l215.715 215.429c-25.7148 17.334 -54.2852 26 -85.7148 26c-28.1904 0 -54.1904 -6.95215 -78 -20.8564c-23.8096 -13.9053 -42.666 -32.8574 -56.5713 -56.8574s-20.8574 -50.0947 -20.8574 -78.2852
c0 -30.8584 8.47656 -59.334 25.4287 -85.4297v0zM475.429 192.143c0 -29.9053 -5.80957 -58.4756 -17.4287 -85.7139s-27.1904 -50.667 -46.7148 -70.2861c-19.5234 -19.6182 -42.8574 -35.2393 -70 -46.8574s-55.5703 -17.4277 -85.2852 -17.4277
s-58.1426 5.80957 -85.2861 17.4277c-27.1426 11.6182 -50.4756 27.2383 -70 46.8574c-19.5234 19.6182 -35.0947 43.0479 -46.7148 70.2861c-11.6182 27.2383 -17.4277 55.8086 -17.4277 85.7139s5.80957 58.4287 17.4277 85.5713
c11.6191 27.1436 27.1914 50.5244 46.7148 70.1436c19.5244 19.6182 42.8574 35.2383 70 46.8564c27.1436 11.6191 55.5713 17.4287 85.2861 17.4287s58.1426 -5.80957 85.2852 -17.4287s50.4766 -27.2383 70 -46.8564c19.5244 -19.6191 35.0947 -43 46.7148 -70.1436
c11.6191 -27.1426 17.4287 -55.666 17.4287 -85.5713v0z" />
    <glyph glyph-name="uniF126" unicode="&#xf126;" 
d="M136.533 157.867v-102.401h-68.2666v102.401h68.2666zM238.934 294.4v-238.934h-68.2676v238.934h68.2676zM341.334 226.134v-170.667h-68.2666v170.667h68.2666zM443.733 328.533v-273.066h-68.2666v273.066h68.2666zM477.866 29.8672v324.267
c0 2.31055 -0.84375 4.31055 -2.53223 6c-1.68945 1.68848 -3.68945 2.53223 -6 2.53223h-426.668c-2.31055 0 -4.31055 -0.84375 -6 -2.53223c-1.68848 -1.68945 -2.5332 -3.68945 -2.5332 -6v-324.267c0 -2.31152 0.844727 -4.31152 2.5332 -6
c1.68945 -1.68945 3.68945 -2.53418 6 -2.53418h426.667c2.31055 0 4.31055 0.844727 6 2.53418c1.68945 1.68848 2.5332 3.68848 2.5332 6zM512 354.134v-324.267c0 -11.7344 -4.17773 -21.7793 -12.5332 -30.1348s-18.4004 -12.5322 -30.1328 -12.5322h-426.668
c-11.7334 0 -21.7773 4.17676 -30.1328 12.5322c-8.35547 8.35645 -12.5332 18.4014 -12.5332 30.1348v324.267c0 11.7334 4.17773 21.7773 12.5332 30.1328s18.4004 12.5332 30.1338 12.5332h426.667c11.7324 0 21.7773 -4.17773 30.1328 -12.5332
s12.5332 -18.3994 12.5332 -30.1328z" />
    <glyph glyph-name="uniF127" unicode="&#xf127;" 
d="M18 -9.14258h-18v402.285h18v-402.285zM36 -8.85742h-9.14258v402h9.14258v-402zM62.8574 -8.85742h-8.85742v402h8.85742v-402zM107.715 -8.85742h-8.85742v402h8.85742v-402zM152.571 -8.85742h-17.7139v402h17.7139v-402zM188.571 -8.85742h-8.85645v402h8.85645v-402
zM206.571 -8.85742h-8.85645v402h8.85645v-402zM224.571 -8.85742h-8.85645v402h8.85645v-402zM269.429 -8.85742h-18v402h18v-402zM314.285 -8.85742h-18v402h18v-402zM350.285 -8.85742h-18v402h18v-402zM386.285 -8.85742h-18v402h18v-402zM413.143 -8.85742h-18v402h18
v-402zM467.143 -8.85742h-26.8574v402h26.8574v-402zM485.143 -8.85742h-9.14258v402h9.14258v-402zM512 -9.14258h-18v402.285h18v-402.285z" />
    <glyph glyph-name="uniF128" unicode="&#xf128;" 
d="M454.571 34.2861c10.667 -16.9521 12.7158 -31.4775 6.14258 -43.5723c-6.57129 -12.0947 -19.9521 -18.1426 -40.1426 -18.1426h-329.144c-20.1895 0 -33.5703 6.0498 -40.1426 18.1426c-6.57129 12.0947 -4.52441 26.6182 6.14258 43.5723l143.714 226.571v113.999
h-18.2852c-4.95215 0 -9.23828 1.80957 -12.8574 5.42871s-5.42871 7.90527 -5.42871 12.8574c0 4.95117 1.80957 9.23926 5.42871 12.8574s7.90527 5.42773 12.8574 5.42773h146.285c4.95117 0 9.23828 -1.80957 12.8574 -5.42773
c3.61914 -3.61914 5.42871 -7.90625 5.42871 -12.8574c0 -4.95215 -1.80957 -9.23828 -5.42871 -12.8574s-7.90527 -5.42871 -12.8574 -5.42871h-18.2852v-113.999l143.715 -226.571v0zM232 241.428l-77.7139 -122.569h203.427l-77.7129 122.569l-5.71484 8.85645v124.572
h-36.5723v-124.571l-5.71289 -8.85742v0z" />
    <glyph glyph-name="uniF129" unicode="&#xf129;" 
d="M192 173.714v109.715h-73.1426v-73.1436c0 -10.0947 3.57129 -18.7148 10.7139 -25.8564c7.14258 -7.14355 15.7617 -10.7158 25.8564 -10.7158l36.5723 0.000976562v0zM484.571 45.7139v-54.8564h-329.143v54.8564l36.5713 54.8574h-36.5713
c-30.2861 0 -56.1445 10.7158 -77.5723 32.1426c-21.4277 21.4287 -32.1426 47.2861 -32.1426 77.5723v91.4287l-18.2852 18.2852l9.14258 36.5713h137.144l9.14258 36.5713h274.285l9.14355 -54.8564l-18.2861 -9.14355v-228.572z" />
    <glyph glyph-name="uniF12A" unicode="&#xf12a;" 
d="M260.571 -36.5713c0 3.04785 -1.52344 4.57129 -4.57129 4.57129c-11.2383 0 -20.9053 4.04785 -29 12.1426s-12.1426 17.7607 -12.1426 29c0 3.04785 -1.52344 4.57227 -4.57227 4.57227s-4.57227 -1.52441 -4.57227 -4.57227
c0 -13.9053 4.90625 -25.7607 14.7158 -35.5723c9.80762 -9.80859 21.666 -14.7139 35.5713 -14.7139c3.04785 0.000976562 4.57129 1.52539 4.57129 4.57227v0zM493.715 45.7148c0 -9.90527 -3.61816 -18.4766 -10.8574 -25.7148
c-7.23828 -7.23828 -15.8096 -10.8574 -25.7148 -10.8574h-128c0 -20.1904 -7.14258 -37.4277 -21.4277 -51.7139c-14.2861 -14.2861 -31.5244 -21.4287 -51.7148 -21.4287s-37.4287 7.14258 -51.7148 21.4287c-14.2852 14.2842 -21.4277 31.5234 -21.4277 51.7139h-128
c-9.90527 0 -18.4766 3.61914 -25.7148 10.8574s-10.8574 15.8096 -10.8574 25.7148c36.1904 30.667 63.5244 68.5234 82 113.572c18.4766 45.0469 27.7148 92.5225 27.7148 142.428c0 31.4277 9.14258 56.3809 27.4287 74.8564
c18.2861 18.4766 43.4287 29.6191 75.4287 33.4287c-1.52344 3.42871 -2.28613 6.95215 -2.28613 10.5713c0 7.61914 2.66699 14.0957 8 19.4287c5.33398 5.33398 11.8096 8 19.4287 8s14.0947 -2.66602 19.4287 -8c5.33301 -5.33301 8 -11.8096 8 -19.4287
c0 -3.61816 -0.762695 -7.14258 -2.28613 -10.5713c32 -3.80957 57.1426 -14.9521 75.4277 -33.4287c18.2871 -18.4766 27.4297 -43.4287 27.4297 -74.8564c0 -49.9053 9.23828 -97.3809 27.7148 -142.428c18.4756 -45.0488 45.8096 -82.9053 82 -113.572z" />
    <glyph glyph-name="uniF12B" unicode="&#xf12b;" 
d="M260.571 -36.5713c0 3.04785 -1.52344 4.57129 -4.57129 4.57129c-11.2383 0 -20.9053 4.04785 -29 12.1426s-12.1426 17.7607 -12.1426 29c0 3.04785 -1.52344 4.57227 -4.57227 4.57227s-4.57227 -1.52441 -4.57227 -4.57227
c0 -13.9053 4.90625 -25.7607 14.7158 -35.5723c9.80762 -9.80859 21.666 -14.7139 35.5713 -14.7139c3.04785 0.000976562 4.57129 1.52539 4.57129 4.57227v0zM70.5713 45.7148h370.857c-31.2383 34.4756 -54.7139 73.667 -70.4287 117.571
s-23.5713 90.0479 -23.5713 138.427c0 48.7617 -30.4766 73.1436 -91.4287 73.1436s-91.4287 -24.3818 -91.4287 -73.1436c0 -48.3809 -7.85645 -94.5234 -23.5713 -138.427c-15.7148 -43.9043 -39.1904 -83.0957 -70.4287 -117.571zM493.715 45.7148
c0 -9.90527 -3.61816 -18.4766 -10.8574 -25.7148c-7.23828 -7.23828 -15.8096 -10.8574 -25.7148 -10.8574h-128c0 -20.1904 -7.14258 -37.4277 -21.4277 -51.7139c-14.2861 -14.2861 -31.5244 -21.4287 -51.7148 -21.4287s-37.4287 7.14258 -51.7148 21.4287
c-14.2852 14.2842 -21.4277 31.5234 -21.4277 51.7139h-128c-9.90527 0 -18.4766 3.61914 -25.7148 10.8574s-10.8574 15.8096 -10.8574 25.7148c36.1904 30.667 63.5244 68.5234 82 113.572c18.4766 45.0469 27.7148 92.5225 27.7148 142.428
c0 31.4277 9.14258 56.3809 27.4287 74.8564c18.2861 18.4766 43.4287 29.6191 75.4287 33.4287c-1.52344 3.42871 -2.28613 6.95215 -2.28613 10.5713c0 7.61914 2.66699 14.0957 8 19.4287c5.33398 5.33398 11.8096 8 19.4287 8s14.0947 -2.66602 19.4287 -8
c5.33301 -5.33301 8 -11.8096 8 -19.4287c0 -3.61816 -0.762695 -7.14258 -2.28613 -10.5713c32 -3.80957 57.1426 -14.9521 75.4277 -33.4287c18.2871 -18.4766 27.4297 -43.4287 27.4297 -74.8564c0 -49.9053 9.23828 -97.3809 27.7148 -142.428
c18.4756 -45.0488 45.8096 -82.9053 82 -113.572z" />
    <glyph glyph-name="uniF12C" unicode="&#xf12c;" 
d="M201.428 119.143c0 -15.2393 -5.42773 -28.2852 -16.2852 -39.1426s-23.9062 -16.2852 -39.1436 -16.2852c-15.0469 0 -27.9521 5.42773 -38.7139 16.2852s-16.1426 23.9053 -16.1426 39.1426c0 15.0479 5.38086 27.9521 16.1426 38.7148
c10.7627 10.7617 23.667 16.1426 38.7148 16.1426c15.2383 0 28.2861 -5.38086 39.1426 -16.1426c10.8574 -10.7627 16.2852 -23.667 16.2852 -38.7148zM365.715 174v0c15.0469 0 28 -5.38086 38.8564 -16.1426c10.8574 -10.7627 16.2861 -23.7148 16.2861 -38.8574
s-5.42773 -28.1426 -16.2861 -39c-10.8564 -10.8574 -23.8564 -16.2852 -39 -16.2852c-15.1416 0 -28.0957 5.38184 -38.8564 16.1426c-10.7617 10.7617 -16.1436 23.7617 -16.1436 39c0 15.2393 5.38184 28.2393 16.1436 39c10.7607 10.7617 23.7607 16.1426 39 16.1426z
M475.429 329.143v-274.285c0 -22.667 -8.0957 -42 -24.2861 -58c-16 -16.1914 -35.333 -24.2861 -58 -24.2861h-274.285c-22.667 0 -42.0957 8.09473 -58.2861 24.2861c-16 16 -24 35.333 -24 58v274.285c0 22.667 8.04785 42.0479 24.1436 58.1436
c16.0947 16.0957 35.4766 24.1426 58.1426 24.1426h274.285c22.667 0 42 -8 58 -24c16.1904 -16.1904 24.2861 -35.6191 24.2861 -58.2861zM265.143 320c0 -7.61914 2.66699 -14.0947 8 -19.4287c5.33301 -5.33301 11.8096 -8 19.4277 -8
c7.61914 0 14.0947 2.66699 19.4277 8c5.33301 5.33398 8 11.8096 8 19.4287s-2.66699 14.0947 -8 19.4287c-5.33301 5.33301 -11.8086 8 -19.4277 8c-7.61816 0 -14.0947 -2.66699 -19.4277 -8c-5.33301 -5.33398 -8 -11.8096 -8 -19.4287zM219.428 119.143
c0 20.1914 -7.14258 37.3818 -21.4277 51.5723c-14.2861 14.1904 -31.6191 21.2852 -52 21.2852c-20 0 -37.1426 -7.14258 -51.4287 -21.4287c-14.2852 -14.2842 -21.4287 -31.4268 -21.4287 -51.4268c0 -20.3818 7.0957 -37.7148 21.2861 -52
s31.3809 -21.4297 51.5713 -21.4297c20.3809 0 37.7148 7.14355 52 21.4287s21.4277 31.6182 21.4277 51.999zM292.285 228.571h53.7148c5.33301 0 9.09473 1.52441 11.2852 4.57227c2.19043 3.04883 2.14258 6.38184 -0.142578 10
c-1.52344 2.47656 -5.23926 3.71484 -11.1426 3.71484h-46.5723l-30.5723 47.4287c0 0.19043 -0.285156 0.571289 -0.857422 1.14258c-0.571289 0.572266 -0.952148 1.14355 -1.14258 1.71387c-1.33301 1.52441 -3.61914 3.14355 -6.85742 4.85742
c-3.23926 1.71484 -6.47559 2.57129 -9.71387 2.57129c-6.8584 0.761719 -12.667 -1.52344 -17.4287 -6.85645l-58.8555 -59.1445c-4 -4.19043 -6 -9.42773 -6 -15.7139c0 -9.33398 3.61914 -16.1914 10.8574 -20.5723l58.8574 -33.1426v-62.5723
c0 -4.38086 1.90527 -8.19043 5.71484 -11.4268c3.80859 -3.23926 8 -4.85742 12.5723 -4.85742c4.57129 0 8.76074 1.61816 12.5713 4.85742c3.80957 3.23828 5.71484 7.04785 5.71484 11.4268v78.2871c0 3.61816 -1.23926 7.23926 -3.71484 10.8574
c-2.47559 3.61914 -5.90527 6.38184 -10.2852 8.28516l-34.8574 18.2852l37.1426 37.1436l18 -26.2861c1.14258 -1.52344 2.42871 -2.61914 3.85742 -3.28516c1.42773 -0.666992 2.52441 -1.04785 3.28516 -1.14355
c0.759766 -0.0947266 2.28418 -0.142578 4.56934 -0.142578v0zM438.857 119c0 20.0947 -7.14258 37.2852 -21.4277 51.5713c-14.2871 14.2861 -31.5244 21.4287 -51.7148 21.4287c-20.1914 0 -37.4287 -7.14258 -51.7148 -21.4287
c-14.2852 -14.2842 -21.4287 -31.5234 -21.4287 -51.7139c0 -20.1914 7.14355 -37.4277 21.4287 -51.7148c14.2852 -14.2861 31.4756 -21.4277 51.5713 -21.4277s37.3818 7.23926 51.8584 21.7148c14.2852 14.2852 21.4277 31.4756 21.4277 51.5703z" />
    <glyph glyph-name="uniF12D" unicode="&#xf12d;" 
d="M475.429 329.143v-274.285c0 -22.667 -8.0957 -42 -24.2861 -58c-16 -16.1914 -35.333 -24.2861 -58 -24.2861h-274.285c-22.667 0 -42.0957 8.09473 -58.2861 24.2861c-16 16 -24 35.333 -24 58v274.285c0 22.667 8.04785 42.0479 24.1436 58.1436
c16.0947 16.0957 35.4766 24.1426 58.1426 24.1426h274.285c22.667 0 42 -8 58 -24c16.1904 -16.1904 24.2861 -35.6191 24.2861 -58.2861zM73.1426 348.857v-193.143h0.286133c0.952148 -22.0947 9.61914 -42.334 26 -60.7148s38.4287 -32.9521 66.1426 -43.7148
c27.7158 -10.7607 57.8584 -16.1426 90.4287 -16.1426c33.1426 0 63.7617 5.52344 91.8574 16.5723c28.0947 11.0469 50.2852 26.0947 66.5713 45.1426s24.4287 39.7617 24.4287 62.1426s-8.14258 43.0947 -24.4287 62.1426
c-16.2852 19.0479 -38.4756 34.0957 -66.5713 45.1436s-58.7148 16.5713 -91.8574 16.5713c-43.8096 0 -82.5713 -9.42871 -116.286 -28.2852v94.2852h-66.5713v0zM256 241.429c21.1426 0 40.6191 -3.66699 58.4277 -11c17.8086 -7.33398 31.9033 -17.334 42.2852 -30
c10.3818 -12.667 15.5723 -26.4766 15.5723 -41.4287s-5.19043 -28.7617 -15.5723 -41.4287c-10.3809 -12.666 -24.4766 -22.666 -42.2852 -30c-17.8096 -7.33301 -37.2861 -11 -58.4287 -11s-40.6182 3.66699 -58.4277 11c-17.8086 7.33398 -31.9033 17.334 -42.2852 30
c-10.3809 12.667 -15.5713 26.4766 -15.5713 41.4287s5.19043 28.7617 15.5723 41.4287c10.3789 12.666 24.4756 22.666 42.2842 30c17.8096 7.33301 37.2861 11 58.4287 11zM256.143 104.571c21.2383 0 39.333 5.28613 54.2871 15.8574
c14.9512 10.5713 22.4277 23.4287 22.4277 38.5713s-7.47656 28 -22.4297 38.5713c-14.9521 10.5723 -33.0469 15.8584 -54.2852 15.8584c-21.2373 0 -39.3809 -5.28613 -54.4277 -15.8584c-15.0488 -10.5713 -22.5723 -23.4287 -22.5723 -38.5713
s7.52344 -28 22.5723 -38.5703c15.0469 -10.5723 33.1885 -15.8584 54.4277 -15.8584z" />
    <glyph glyph-name="uniF12E" unicode="&#xf12e;" 
d="M0 411.429v0v0.00292969h93.1445v-132c22.4766 12.5713 47.6182 22.333 75.4287 29.2852c27.8086 6.95312 56.9521 10.4287 87.4277 10.4287c27.8096 0 54.7627 -2.95215 80.8574 -8.85742c26.0967 -5.9043 49.6201 -14.1904 70.5723 -24.8564
c20.9512 -10.667 39.333 -23.0957 55.1426 -37.2861c15.8105 -14.1904 28 -30.0957 36.5723 -47.7139c8.57129 -17.6211 12.8574 -35.8574 12.8574 -54.7158c0 -18.8574 -4.28613 -37.0957 -12.8574 -54.7139c-8.57227 -17.6211 -20.7637 -33.5244 -36.5723 -47.7148
c-15.8096 -14.1904 -34.1914 -26.6191 -55.1426 -37.2852c-20.9541 -10.667 -44.4775 -18.9053 -70.5723 -24.7148c-26.0957 -5.80957 -53.0479 -8.71582 -80.8574 -8.71582c-27.4297 0 -53.9531 2.80957 -79.5713 8.42871c-25.6201 5.61914 -48.8105 13.6191 -69.5723 24
c-20.7627 10.3809 -39.0479 22.4756 -54.8574 36.2852s-28.1904 29.2861 -37.1426 46.4297c-8.95312 17.1426 -13.8096 34.9512 -14.5723 53.4277h-0.285156v270.286zM256 261.143c-29.5244 0 -56.8096 -5.14258 -81.8574 -15.4297
c-25.0479 -10.2842 -44.8096 -24.2842 -59.2852 -42c-14.4766 -17.7148 -21.7148 -37.0479 -21.7148 -58c0 -20.9512 7.23828 -40.2842 21.7148 -58c14.4756 -17.7148 34.2373 -31.7148 59.2852 -42c25.0479 -10.2842 52.333 -15.4277 81.8574 -15.4277
s56.8096 5.14355 81.8574 15.4297c25.0479 10.2852 44.8086 24.2852 59.2852 42s21.7148 37.0469 21.7148 58c0 20.9512 -7.23828 40.2852 -21.7148 58s-34.2373 31.7148 -59.2852 42s-52.333 15.4277 -81.8574 15.4277zM148.285 145.857
c0 13.8086 4.80957 26.5723 14.4287 38.2852c9.61914 11.7139 22.7158 20.9521 39.2861 27.7148c16.5703 6.76172 34.5713 10.1426 54 10.1426s37.4287 -3.38086 54 -10.1426c16.5713 -6.7627 29.666 -16 39.2852 -27.7148
c9.61816 -11.7139 14.4277 -24.4766 14.4277 -38.2852c0 -13.8096 -4.80957 -26.5723 -14.4277 -38.2861c-9.61914 -11.7139 -22.7148 -21 -39.2852 -27.8564c-16.5713 -6.85742 -34.5713 -10.2852 -54 -10.2852s-37.4287 3.42773 -54 10.2852
c-16.5713 6.85645 -29.666 16.1426 -39.2852 27.8564c-9.61914 11.7148 -14.4297 24.4766 -14.4297 38.2861v0z" />
    <glyph glyph-name="uniF12F" unicode="&#xf12f;" 
d="M282.245 200.531c0 9.40625 -4.47949 16.623 -13.4541 21.6543c-8.96484 5.03125 -17.3857 5.1416 -25.2607 0.329102c-9.40625 -4.375 -14.0547 -12.3057 -13.9443 -23.79c0.107422 -11.4873 4.86719 -19.1953 14.2734 -23.1348
c8.53125 -5.02637 17.3867 -4.59473 26.5742 1.31738c9.1875 5.90527 13.1279 13.7783 11.8115 23.624v0zM308.5 205.781c1.74902 -14.4375 -2.19141 -27.6738 -11.8115 -39.7051c-9.62891 -12.0312 -21.6611 -18.7012 -36.0957 -20.0127
c-14.4355 -1.31152 -27.4531 3.06152 -39.0459 13.1221c-11.5947 10.0625 -17.7197 22.4219 -18.375 37.0791c-0.4375 10.7188 2.35156 20.8896 8.36523 30.5146c6.0166 9.625 13.9473 16.625 23.79 21c15.3125 6.78125 30.7871 5.6875 46.4326 -3.28125
c15.6357 -8.96777 24.5488 -21.875 26.7402 -38.7168v0zM364.932 334.076c-4.37207 -4.59375 -10.2207 -8.3125 -17.5527 -11.1553c-7.32324 -2.84473 -13.127 -4.59375 -17.3857 -5.25195c-4.2666 -0.65625 -11.21 -1.53027 -20.8398 -2.62305
c-33.9062 -4.375 -69.3438 -4.375 -106.312 0c-9.625 1.31152 -16.5137 2.35156 -20.6709 3.11523c-4.15625 0.766602 -9.89844 2.51562 -17.2266 5.25c-7.32715 2.73633 -13.2891 6.29004 -17.8828 10.665c2.84473 4.15625 6.78125 7.5459 11.8135 10.1719
c5.03125 2.62402 9.40625 4.32031 13.125 5.08594c3.7168 0.764648 8.8584 1.69434 15.4199 2.78809c43.3135 7.65625 87.9336 7.76758 133.871 0.329102c7.21777 -1.09277 12.8008 -2.02344 16.7402 -2.79004c3.93066 -0.763672 8.63965 -2.51465 14.1094 -5.24902
c5.46875 -2.73438 9.73535 -6.17871 12.792 -10.3359v0zM378.714 89.2998c0 1.5293 0.600586 4.42676 1.81055 8.69336c1.20117 4.26562 1.5293 7.76465 0.980469 10.499c-0.547852 2.73438 -2.46484 4.54102 -5.74121 5.41602
c-35.2207 -23.1855 -75.1426 -34.7842 -119.763 -34.7842c-44.626 0 -84.6562 11.5986 -120.094 34.7842l-3.9375 -1.9707l-1.64062 -3.93457c5.68555 -33.6904 10.1709 -56.6592 13.4502 -68.9082c10.2832 -17.7207 32.5957 -29.5322 66.9385 -35.4375
c54.4688 -10.0625 101.28 -4.2666 140.432 17.3887c7.43848 4.15625 12.8018 9.78809 16.0781 16.9004c3.28613 7.10742 5.74219 16.458 7.38574 28.0518c1.64453 11.5957 3.00488 19.3613 4.10059 23.3018v0zM421.373 316.687
c1.96973 11.5928 1.0957 19.7969 -2.62402 24.6094c-9.4082 12.0303 -26.3604 21.6543 -50.8574 28.874c-47.2539 13.7812 -100.523 17.7188 -159.801 11.8115c-28.875 -2.62402 -53.5928 -7.65527 -74.1562 -15.0928c-8.3125 -3.28223 -14.8184 -6.0166 -19.5234 -8.20312
c-4.70117 -2.18652 -9.84375 -5.90527 -15.4219 -11.1572c-5.57617 -5.25 -8.80273 -11.1553 -9.67773 -17.7168c1.75 -14.877 3.82812 -29.9697 6.2334 -45.2812c2.40625 -15.3115 5.57812 -34.0156 9.51562 -56.1094c3.93848 -22.0947 6.56152 -37.0771 7.87598 -44.9492
c0.21875 -1.0957 0.763672 -4.48926 1.64062 -10.1768c0.875 -5.68457 1.63867 -9.62012 2.29688 -11.8115c0.65625 -2.18652 1.96875 -5.1416 3.93555 -8.86133c1.9707 -3.71875 4.375 -6.77539 7.21973 -9.1875c22.9688 -17.5 54.0312 -28.4365 93.1865 -32.8096
c56.6562 -6.12109 104.783 0.768555 144.379 20.6729c5.24609 2.84375 9.56738 5.36328 12.959 7.54395c3.3916 2.19141 6.77637 5.36328 10.1689 9.51855c3.39062 4.15625 5.52051 8.53027 6.39551 13.123c10.5039 58.4053 19.249 110.141 26.2549 155.203v0zM508 349.498
v-314.996c0 -26.0342 -9.24902 -48.2871 -27.7305 -66.7773c-18.4805 -18.4805 -40.7422 -27.7207 -66.7764 -27.7207h-314.992c-26.0322 0 -48.29 9.24023 -66.7754 27.7207c-18.4824 18.4902 -27.7256 40.7432 -27.7256 66.7773v314.996
c0 26.0322 9.24219 48.29 27.7256 66.7734c18.4854 18.4844 40.7432 27.7246 66.7744 27.7246h314.992c26.0332 0 48.2959 -9.24023 66.7773 -27.7246c18.4814 -18.4834 27.7305 -40.7412 27.7305 -66.7734z" />
    <glyph glyph-name="uniF130" unicode="&#xf130;" 
d="M290.247 203.682c1.64844 -12.9893 -3.55957 -23.4033 -15.6162 -31.2383c-12.0654 -7.83496 -23.5605 -8.4502 -34.4893 -1.85254c-8.04102 3.50684 -13.5557 9.48535 -16.5449 17.9404c-2.99023 8.4502 -3.04102 16.9033 -0.155273 25.3584
c2.88672 8.45117 8.24707 14.4297 16.083 17.9355c7.42285 3.71387 14.8955 4.94922 22.4268 3.71387c7.52734 -1.24023 14.1221 -4.90039 19.792 -10.9834c5.66895 -6.07812 8.50391 -13.0391 8.50391 -20.874zM324.573 210.177
c-2.88574 22.0615 -14.5342 38.9688 -34.9482 50.7217c-20.4082 11.7529 -40.7207 13.0928 -60.9268 4.02148c-12.9902 -5.77539 -23.3496 -14.8965 -31.0811 -27.374c-7.73438 -12.4736 -11.2891 -25.8213 -10.6709 -40.0518
c0.824219 -18.7598 8.81445 -34.7393 23.9688 -47.9316c15.1543 -13.1982 32.2158 -18.9717 51.1875 -17.3193c18.7637 1.64844 34.4346 10.3066 47.0078 25.9785c12.5781 15.667 17.7363 32.9873 15.4629 51.9551v0zM398.493 377.803
c-4.12598 5.56641 -9.89648 10.1543 -17.3203 13.7646c-7.4248 3.60449 -13.4033 5.87402 -17.9404 6.80176c-4.53223 0.927734 -11.8564 2.21582 -21.957 3.86816c-60.001 9.6875 -118.351 9.4834 -175.051 -0.621094
c-8.86523 -1.44434 -15.6699 -2.68066 -20.4121 -3.70898c-4.74219 -1.03223 -10.4121 -3.30176 -17.0107 -6.80762c-6.59766 -3.50488 -11.751 -7.93555 -15.4629 -13.2979c6.18457 -5.77441 14.0205 -10.4619 23.5039 -14.0713
c9.4834 -3.61035 17.0615 -5.875 22.7305 -6.80273c5.6709 -0.928711 14.6904 -2.11523 27.0615 -3.55957c47.0107 -5.97852 93.1982 -6.0791 138.557 -0.308594c12.9893 1.64941 22.2188 2.88965 27.6807 3.71387c5.46289 0.824219 12.9404 3.04004 22.4238 6.64941
c9.4873 3.60645 17.2148 8.40137 23.1973 14.3799v0zM416.12 57.7041c-1.64844 -5.3584 -3.24707 -13.248 -4.79199 -23.6562c-1.5498 -10.4121 -2.98926 -19.0723 -4.33008 -25.9785c-1.33984 -6.91113 -4.2793 -14.1221 -8.81738 -21.6494
c-4.53418 -7.52734 -10.5127 -13.3516 -17.9355 -17.4775c-17.7314 -9.8916 -37.2695 -17.2646 -58.6064 -22.1113c-21.3428 -4.84277 -42.166 -7.11523 -62.4766 -6.80273c-20.3096 0.308594 -41.082 2.21582 -62.3184 5.7207
c-9.48535 1.65234 -17.8857 3.50488 -25.2051 5.56641c-7.32227 2.06445 -15.2061 4.8457 -23.6592 8.35059c-8.4541 3.50586 -15.9795 7.99023 -22.5781 13.4561c-6.59668 5.46289 -11.959 11.7988 -16.083 19.0186c-5.1543 19.792 -11.0312 49.8965 -17.6279 90.3096
l1.85547 4.94629l5.56836 2.78125c45.9775 -30.5117 98.1934 -45.7715 156.646 -45.7715c58.4551 0 110.771 15.2598 156.959 45.7715c4.33008 -1.23242 6.80273 -3.60547 7.42383 -7.11133c0.619141 -3.50586 0.104492 -8.14355 -1.54395 -13.918
c-1.6543 -5.77344 -2.47852 -9.58789 -2.47852 -11.4443v0zM472.1 354.918c-5.36328 -34.4346 -16.8066 -101.959 -34.3301 -202.574c-1.02832 -6.18652 -3.81348 -11.957 -8.34766 -17.3193c-4.53809 -5.36328 -9.02148 -9.4834 -13.4561 -12.373
c-4.43359 -2.88574 -10.0498 -6.07812 -16.8525 -9.58398c-51.958 -25.9785 -114.848 -35.0537 -188.661 -27.2197c-51.1338 5.57129 -91.75 19.9014 -121.854 42.9902c-3.09375 2.47266 -5.71973 5.20801 -7.88574 8.19727
c-2.16504 2.99023 -3.91699 6.59863 -5.25879 10.8242c-1.34082 4.22559 -2.26855 7.73145 -2.78223 10.5117c-0.516602 2.78516 -1.13477 6.85645 -1.85742 12.2188c-0.719727 5.35938 -1.28809 8.96875 -1.7002 10.8242
c-1.85449 10.3086 -4.58789 25.7715 -8.19531 46.3867c-3.6084 20.6211 -6.49512 37.2715 -8.66016 49.9512c-2.16504 12.6768 -4.58789 27.8857 -7.2666 45.6172c-2.68164 17.7314 -4.9502 34.0186 -6.80469 48.8643c0.618164 5.3623 2.42285 10.3584 5.41211 15
c2.98926 4.6377 6.2373 8.50586 9.74219 11.5947c3.50488 3.09375 8.14355 6.18652 13.918 9.28027c5.77246 3.09375 10.5137 5.41211 14.2256 6.95703c3.71191 1.54883 8.65918 3.45605 14.8438 5.72461c25.7725 9.48535 58.041 16.084 96.8027 19.7939
c78.1426 7.62793 147.837 2.47363 209.07 -15.4619c31.958 -9.48438 54.123 -22.0615 66.4961 -37.7324c3.29785 -4.12598 4.99512 -9.37988 5.10449 -15.7744c0.0996094 -6.38965 -0.46582 -11.9561 -1.70312 -16.6973v0z" />
    <glyph glyph-name="uniF131" unicode="&#xf131;" 
d="M410.416 288.925c3.63281 -36.751 -9.59375 -62.7988 -39.6797 -78.1436c23.624 -5.65625 41.2949 -16.0547 53.0049 -31.1992c11.7109 -15.1426 16.2529 -36.7441 13.6309 -64.8125c-1.41504 -14.3359 -4.69336 -26.96 -9.8457 -37.8623
c-5.14551 -10.9033 -11.6602 -19.8887 -19.5332 -26.959c-7.87402 -7.07129 -17.667 -12.9736 -29.3779 -17.7197c-11.7148 -4.74609 -23.9834 -8.22852 -36.8018 -10.4463c-12.8232 -2.22559 -27.5137 -3.73535 -44.0732 -4.54199v-77.2402h-46.6436v76.0254
c-16.1553 0 -28.4678 0.105469 -36.9473 0.301758v-76.3271h-46.6445v77.2393c-3.63574 0 -9.08789 0.0498047 -16.3584 0.147461c-7.26953 0.106445 -12.8232 0.155273 -16.6592 0.155273h-60.5781l9.38965 55.4268h33.6221c10.0947 0 15.9492 5.14551 17.5645 15.4453
v121.761h4.84863c-1.21191 0.201172 -2.82617 0.302734 -4.84863 0.302734v86.9277c-2.62109 13.7305 -11.6074 20.5967 -26.9551 20.5967h-33.6211v49.6709l64.2129 -0.301758c12.9219 0 22.7148 0.101562 29.3818 0.301758v76.3271h46.6436v-74.8125
c16.5537 0.40625 28.8711 0.605469 36.9482 0.605469v74.207h46.6436v-76.3271c15.9541 -1.41211 30.0869 -3.68359 42.4043 -6.8125c12.3184 -3.13184 23.7256 -7.67383 34.2285 -13.6309c10.4951 -5.95703 18.8291 -13.832 24.9863 -23.626
c6.15625 -9.79102 9.84277 -21.3525 11.0576 -34.6787zM345.294 123.853c0 7.26562 -1.5166 13.7334 -4.54199 19.3838c-3.03027 5.65234 -6.76855 10.3008 -11.209 13.9365c-4.44043 3.62891 -10.2461 6.71094 -17.4141 9.23926
c-7.16797 2.52051 -13.7812 4.38672 -19.8408 5.60254c-6.05762 1.20703 -13.5283 2.12012 -22.4121 2.72363c-8.88477 0.602539 -15.8525 0.905273 -20.9004 0.905273s-11.5596 -0.0976562 -19.5342 -0.301758c-7.97461 -0.195312 -12.7695 -0.301758 -14.3877 -0.301758
v-102.373c1.61816 0 5.35254 -0.0488281 11.209 -0.155273c5.85449 -0.0976562 10.7012 -0.146484 14.5381 -0.146484c3.83789 0 9.18652 0.146484 16.0518 0.447266c6.86328 0.310547 12.7705 0.709961 17.7168 1.21582c4.94922 0.506836 10.7021 1.3623 17.2627 2.57715
c6.56445 1.20605 12.166 2.625 16.8145 4.23926c4.63965 1.61426 9.43457 3.73535 14.3857 6.36133c4.94824 2.62598 8.9375 5.65137 11.9629 9.08398c3.03027 3.43359 5.50391 7.46973 7.4209 12.1172c1.91992 4.6416 2.87793 9.79395 2.87793 15.4453v0zM323.79 268.026
c0 6.66211 -1.26367 12.5684 -3.78809 17.7188c-2.52344 5.14941 -5.60156 9.38965 -9.23535 12.7207c-3.63672 3.33105 -8.48047 6.1582 -14.5391 8.48047s-11.6123 3.9873 -16.6602 4.99707c-5.04688 1.01074 -11.2578 1.81836 -18.625 2.42383
c-7.37109 0.605469 -13.2266 0.857422 -17.5693 0.755859c-4.3418 -0.0996094 -9.79395 -0.201172 -16.3535 -0.301758c-6.56445 -0.101562 -10.5518 -0.152344 -11.9668 -0.152344v-92.9854c1.01074 0 4.49219 -0.0517578 10.4492 -0.150391
c5.95605 -0.102539 10.6543 -0.102539 14.0869 0c3.42773 0.0986328 8.48047 0.301758 15.1426 0.605469c6.66211 0.302734 12.2168 0.858398 16.6562 1.66504c4.44434 0.806641 9.6416 1.91895 15.5986 3.33008c5.95703 1.41504 10.8535 3.28223 14.6914 5.60449
c3.83691 2.32324 7.57227 5.04883 11.208 8.17676c3.63379 3.13184 6.36035 7.01758 8.1748 11.6611c1.82031 4.64648 2.72949 9.79395 2.72949 15.4502z" />
    <glyph glyph-name="uniF132" unicode="&#xf132;" 
d="M213.429 13.4287c14.4756 -6.0957 27.8086 -9.14258 40 -9.14258c24.9512 0 45.5234 3.9043 61.7139 11.7139s27.8096 18.5713 34.8574 32.2861c7.23828 13.333 10.8574 30.5713 10.8574 51.7139c0 21.7139 -3.90527 38.8574 -11.7148 51.4287
c-11.0469 17.9043 -24.4756 29.9043 -40.2852 36c-15.2383 6.09375 -38.7607 9.1416 -70.5713 9.1416c-14.0947 0 -23.7158 -0.952148 -28.8574 -2.85742v-41.1426l-0.286133 -49.4277l0.857422 -77.1426c0 -2.85742 1.14258 -7.04785 3.42871 -12.5713zM209.429 226.571
c8.19043 -1.33301 18.5723 -2 31.1416 -2c33.334 0 58.4766 6.19141 75.4287 18.5723c16.9521 12.3818 25.4287 33.7148 25.4287 64c0 21.334 -8.0957 39.1436 -24.2861 53.4287c-16 14.2861 -40.2852 21.4287 -72.8564 21.4287
c-9.90625 0 -22.2861 -1.23828 -37.1436 -3.71484c0 -8.38086 0.19043 -15.7139 0.572266 -22c1.33301 -23.2373 1.90527 -49.8096 1.71484 -79.7139l-0.286133 -28c0 -8.19141 0.0957031 -15.5244 0.286133 -22.001v0zM54.8574 -27.4287l0.571289 26.8584
c8.57129 1.71387 15.0469 2.85742 19.4287 3.42773c14.666 2.28516 26.3809 5.23828 35.1426 8.85645c3.23828 5.14355 5.23828 10 6 14.5732c1.71484 12.5713 2.57129 31.0469 2.57129 55.4268l-0.571289 142c-0.952148 48.7617 -1.80957 87.2393 -2.57129 115.429
c-0.19043 16.5713 -1.23828 26.9521 -3.14355 31.1426c-0.19043 0.762695 -1.33301 1.90527 -3.42773 3.42871c-3.42871 2.28613 -10 3.71484 -19.7148 4.28613c-5.71387 0.380859 -16.5713 1.61914 -32.5713 3.71387l-1.14355 23.7148l74.2861 1.71387l108.572 3.71484
l12.8564 0.285156c0.952148 0 2.28516 0.0478516 4 0.143555c1.71484 0.0947266 3.04785 0.142578 4 0.142578c0.191406 0 2.23926 -0.046875 6.14355 -0.142578c3.90527 -0.0947266 7.76074 -0.143555 11.5723 -0.143555h21.1416
c16.7617 0 34.9521 -2.57129 54.5713 -7.71387c8.19141 -2.47656 17.334 -6.19043 27.4287 -11.1436c10.8574 -5.52344 20.5713 -12.7617 29.1426 -21.7139c8.38086 -8.95312 14.5713 -18.8574 18.5713 -29.7139c4 -10.8574 6 -22.4766 6 -34.8574
c0 -13.334 -3.04688 -25.5244 -9.14258 -36.5713c-6.09375 -11.0479 -15.1416 -21.0479 -27.1416 -30c-4.95215 -3.80957 -19.2393 -11.1436 -42.8584 -22c33.7158 -7.80957 59.1426 -21.7158 76.2861 -41.7158c17.5234 -20.1904 26.2852 -42.666 26.2852 -67.4277
c0 -14.4756 -2.76172 -29.8086 -8.28516 -45.999c-4 -11.8096 -10.7607 -22.9521 -20.2861 -33.4277c-12.5713 -13.7158 -25.9043 -24 -40 -30.8584c-13.9043 -6.85742 -33.2383 -12.5713 -58 -17.1416c-15.6191 -2.8584 -34.4756 -3.90625 -56.5713 -3.14453
l-56.2861 1.14355c-16 0.380859 -44.3809 -0.666992 -85.1426 -3.14355c-6.28613 -0.571289 -32.1904 -1.61914 -77.7139 -3.14258v0z" />
    <glyph glyph-name="uniF133" unicode="&#xf133;" 
d="M380.845 304.571c3.42773 -3.80957 4.09473 -8 2 -12.5713l-154.286 -330.571c-2.47656 -4.76172 -6.47656 -7.14355 -12 -7.14355c-0.761719 0 -2.09473 0.19043 -4 0.572266c-3.23828 0.952148 -5.66602 2.76172 -7.28516 5.42773
c-1.61914 2.66699 -2.04785 5.52441 -1.28613 8.57227l56.2861 230.857l-116 -28.8574c-0.761719 -0.19043 -1.90527 -0.285156 -3.42871 -0.285156c-3.42871 0 -6.38086 1.04785 -8.85645 3.14258c-3.42871 2.85742 -4.66699 6.57227 -3.71387 11.1426l57.4277 235.714
c0.761719 2.66699 2.28516 4.85742 4.57227 6.57129c2.28516 1.71484 4.95215 2.57227 8 2.57227h93.7139c3.61914 0 6.66699 -1.19043 9.14355 -3.57227c2.47559 -2.38086 3.71484 -5.19043 3.71484 -8.42773c0 -1.52344 -0.476562 -3.23828 -1.42773 -5.14355
l-48.8594 -132.285l113.144 28c1.52344 0.380859 2.66602 0.571289 3.42773 0.571289c3.61914 0 6.85742 -1.42871 9.71387 -4.28613v0z" />
    <glyph glyph-name="uniF134" unicode="&#xf134;" 
d="M486.531 311.429c7.61816 -10.8574 9.33301 -23.1436 5.1416 -36.8574l-78.5703 -258.857c-3.61914 -12.1904 -10.9062 -22.4268 -21.8574 -30.7139c-10.9521 -8.28613 -22.6191 -12.4287 -35 -12.4287h-263.714c-14.667 0 -28.8096 5.0957 -42.4287 15.2861
s-23.0947 22.7139 -28.4287 37.5723c-4.57129 12.7607 -4.76172 24.8574 -0.571289 36.2842c0 0.762695 0.285156 3.33398 0.857422 7.71582c0.571289 4.38086 0.952148 7.90527 1.14258 10.5723c0.19043 1.52344 -0.0947266 3.57227 -0.857422 6.1416
c-0.760742 2.57227 -1.04688 4.42773 -0.856445 5.57227c0.380859 2.09473 1.14258 4.09473 2.28613 6c1.14258 1.90527 2.71387 4.14355 4.71387 6.71582c2 2.57129 3.57129 4.80957 4.71387 6.71387c4.38184 7.23828 8.66699 15.9521 12.8574 26.1436
c4.19043 10.1904 7.04785 18.9043 8.57129 26.1426c0.571289 1.9043 0.619141 4.76074 0.143555 8.57129c-0.476562 3.80957 -0.524414 6.47656 -0.143555 8c0.571289 2.09473 2.19043 4.76172 4.85742 8c2.66602 3.23828 4.28613 5.42871 4.85645 6.57129
c4 6.8584 8 15.6191 12 26.2861c4 10.666 6.38184 19.2383 7.14355 25.7139c0.19043 1.71484 -0.0478516 4.76172 -0.713867 9.14258c-0.666992 4.38086 -0.619141 7.04785 0.142578 8c0.761719 2.47656 2.85742 5.38086 6.28516 8.71484
c3.42871 3.33301 5.52441 5.47656 6.28613 6.42871c3.61914 4.95215 7.66602 13 12.1426 24.1426c4.47656 11.1436 7.0957 20.334 7.85742 27.5713c0.19043 1.52441 -0.0947266 3.95312 -0.857422 7.28613c-0.761719 3.33398 -0.952148 5.85742 -0.571289 7.57129
c0.380859 1.52441 1.23828 3.23926 2.57129 5.14355c1.33398 1.90527 3.04785 4.0957 5.14355 6.57129c2.09473 2.47559 3.71387 4.47559 4.85645 6c1.52344 2.28516 3.0957 5.19043 4.71387 8.71484c1.61914 3.52344 3.04785 6.85645 4.28613 10
c1.23828 3.14258 2.76172 6.57129 4.57129 10.2852c1.81055 3.71387 3.66699 6.76172 5.57227 9.14258c1.9043 2.38184 4.42773 4.61914 7.57129 6.71484c3.14258 2.09473 6.57129 3.19043 10.2861 3.28516c3.71387 0.0957031 8.2373 -0.427734 13.5713 -1.57129
l-0.286133 -0.856445c7.23926 1.71387 12.0947 2.57129 14.5732 2.57129h217.428c14.0947 0 24.9521 -5.33398 32.5723 -16c7.61816 -10.667 9.33301 -23.0479 5.1416 -37.1436l-78.2871 -258.86c-6.85742 -22.667 -13.667 -37.2861 -20.4287 -43.8584
c-6.76074 -6.57227 -19 -9.85742 -36.7139 -9.85742h-248.286c-5.14258 0 -8.76172 -1.42773 -10.8564 -4.28418c-2.0957 -3.04883 -2.19141 -7.14258 -0.286133 -12.2861c4.57129 -13.333 18.2861 -20 41.1436 -20h263.714c5.52539 0 10.8584 1.47656 16 4.42773
c5.14355 2.95117 8.47656 6.90527 10 11.8584l85.7158 282c1.33301 4.19043 1.80957 9.61914 1.42773 16.2852c7.23633 -2.85645 12.8564 -6.95215 16.8564 -12.2852v0zM182.53 310.857c-0.760742 -2.47656 -0.571289 -4.61914 0.573242 -6.42871
c1.14258 -1.80957 3.04785 -2.71484 5.71387 -2.71484h173.716c2.47559 0 4.90527 0.90625 7.28418 2.71484c2.38281 1.80957 3.95215 3.95215 4.71582 6.42871l6 18.2852c0.760742 2.47559 0.572266 4.61914 -0.572266 6.42871
c-1.14355 1.80957 -3.04883 2.71387 -5.71484 2.71387h-173.716c-2.47461 0 -4.9043 -0.904297 -7.28418 -2.71387c-2.38184 -1.80957 -3.95215 -3.95312 -4.71582 -6.42871zM158.816 237.714c-0.760742 -2.47559 -0.571289 -4.61816 0.572266 -6.42773
c1.14453 -1.80957 3.04785 -2.71484 5.71387 -2.71484h173.715c2.47656 0 4.90625 0.905273 7.28613 2.71484s3.95215 3.95215 4.71387 6.42773l6 18.2861c0.761719 2.47559 0.573242 4.61914 -0.571289 6.42871c-1.14258 1.80957 -3.04785 2.71387 -5.71582 2.71387
h-173.714c-2.47656 0 -4.90527 -0.904297 -7.28613 -2.71387c-2.37988 -1.80957 -3.95117 -3.95312 -4.71387 -6.42871z" />
    <glyph glyph-name="uniF135" unicode="&#xf135;" 
d="M402.286 371.571h-292.571v-354.857l120.855 116l25.4297 24.2861l25.4287 -24.2861l120.857 -116v354.857zM405.714 408.143c4.38184 0 8.57324 -0.856445 12.5732 -2.57129c6.28418 -2.47656 11.2842 -6.38086 15 -11.7139
c3.71387 -5.33398 5.57129 -11.2383 5.57129 -17.7148v-368.285c0 -6.47656 -1.85742 -12.3809 -5.57129 -17.7148c-3.71582 -5.33301 -8.71582 -9.23926 -15 -11.7139c-3.61914 -1.52539 -7.80957 -2.28613 -12.5732 -2.28613
c-9.14258 0 -17.0469 3.04785 -23.7139 9.14355l-126 121.143l-126 -121.143c-6.85742 -6.28613 -14.7617 -9.42871 -23.7148 -9.42871c-4.38086 0 -8.57129 0.856445 -12.5713 2.57129c-6.28613 2.47559 -11.2861 6.38184 -15 11.7148
c-3.71484 5.33496 -5.57129 11.2393 -5.57129 17.7158v368.284c0 6.47656 1.85645 12.3818 5.57129 17.7148c3.71387 5.33398 8.71387 9.23828 15 11.7148c4 1.71387 8.19043 2.57129 12.5713 2.57129h299.428l0.000976562 -0.00195312v0z" />
    <glyph glyph-name="uniF136" unicode="&#xf136;" 
d="M405.714 408.143c4.38086 0 8.57324 -0.856445 12.5732 -2.57129c6.28418 -2.47656 11.2842 -6.38086 15 -11.7139c3.71387 -5.33398 5.57129 -11.2383 5.57129 -17.7148v-368.285c0 -6.47656 -1.85742 -12.3809 -5.57129 -17.7148
c-3.71582 -5.33301 -8.71582 -9.23926 -15 -11.7139c-3.61914 -1.52539 -7.80957 -2.28613 -12.5732 -2.28613c-9.14258 0 -17.0469 3.04785 -23.7139 9.14355l-126 121.143l-126 -121.143c-6.85742 -6.28613 -14.7617 -9.42871 -23.7148 -9.42871
c-4.38086 0 -8.57129 0.856445 -12.5713 2.57129c-6.28613 2.47559 -11.2861 6.38184 -15 11.7148c-3.71484 5.33496 -5.57129 11.2393 -5.57129 17.7158v368.284c0 6.47656 1.85645 12.3818 5.57129 17.7148c3.71387 5.33398 8.71387 9.23828 15 11.7148
c4 1.71387 8.19043 2.57129 12.5713 2.57129h299.429v-0.00195312v0z" />
    <glyph glyph-name="uniF137" unicode="&#xf137;" 
d="M182.857 338.285h146.285v36.5723h-146.285v-36.5723zM512 155.428v-137.143c0 -12.5723 -4.47559 -23.333 -13.4287 -32.2852c-8.95117 -8.95215 -19.7139 -13.4287 -32.2842 -13.4287h-420.572c-12.5723 0 -23.334 4.47656 -32.2861 13.4287
c-8.95312 8.95215 -13.4287 19.7148 -13.4287 32.2852v137.143h192v-45.7148c0 -4.95117 1.80957 -9.23828 5.42871 -12.8574c3.61816 -3.61914 7.90527 -5.42773 12.8564 -5.42773h91.4277c4.95215 0 9.23926 1.80859 12.8574 5.42773
c3.62012 3.62012 5.42969 7.90625 5.42969 12.8594v45.7148zM292.571 155.428v-36.5723h-73.1426v36.5723h73.1426zM512 292.571v-109.714h-512v109.714c0 12.5713 4.47559 23.334 13.4287 32.2861c8.95215 8.95215 19.7139 13.4277 32.2861 13.4277h100.571v45.7148
c0 7.61914 2.66602 14.0947 8 19.4287c5.33301 5.33301 11.8096 8 19.4277 8h164.572c7.61816 0 14.0938 -2.66699 19.4277 -8c5.33301 -5.33398 8 -11.8096 8 -19.4287v-45.7148h100.572c12.5723 0 23.333 -4.47559 32.2852 -13.4277
c8.95312 -8.95215 13.4287 -19.7148 13.4287 -32.2861z" />
    <glyph glyph-name="uniF138" unicode="&#xf138;" 
d="M410.416 288.925c3.63281 -36.751 -9.59375 -62.7988 -39.6797 -78.1436c23.624 -5.65625 41.2949 -16.0547 53.0049 -31.1992c11.7109 -15.1426 16.2529 -36.7441 13.6309 -64.8125c-1.41504 -14.3359 -4.69336 -26.96 -9.8457 -37.8623
c-5.14551 -10.9033 -11.6602 -19.8887 -19.5332 -26.959c-7.87402 -7.07129 -17.667 -12.9736 -29.3779 -17.7197c-11.7148 -4.74609 -23.9834 -8.22852 -36.8018 -10.4463c-12.8232 -2.22559 -27.5137 -3.73535 -44.0732 -4.54199v-77.2402h-46.6436v76.0254
c-16.1553 0 -28.4678 0.105469 -36.9473 0.301758v-76.3271h-46.6445v77.2393c-3.63574 0 -9.08789 0.0498047 -16.3584 0.147461c-7.26953 0.106445 -12.8232 0.155273 -16.6592 0.155273h-60.5781l9.38965 55.4268h33.6221c10.0947 0 15.9492 5.14551 17.5645 15.4453
v121.761h4.84863c-1.21191 0.201172 -2.82617 0.302734 -4.84863 0.302734v86.9277c-2.62109 13.7305 -11.6074 20.5967 -26.9551 20.5967h-33.6211v49.6709l64.2129 -0.301758c12.9219 0 22.7148 0.101562 29.3818 0.301758v76.3271h46.6436v-74.8125
c16.5537 0.40625 28.8711 0.605469 36.9482 0.605469v74.207h46.6436v-76.3271c15.9541 -1.41211 30.0869 -3.68359 42.4043 -6.8125c12.3184 -3.13184 23.7256 -7.67383 34.2285 -13.6309c10.4951 -5.95703 18.8291 -13.832 24.9863 -23.626
c6.15625 -9.79102 9.84277 -21.3525 11.0576 -34.6787zM345.294 123.853c0 7.26562 -1.5166 13.7334 -4.54199 19.3838c-3.03027 5.65234 -6.76855 10.3008 -11.209 13.9365c-4.44043 3.62891 -10.2461 6.71094 -17.4141 9.23926
c-7.16797 2.52051 -13.7812 4.38672 -19.8408 5.60254c-6.05762 1.20703 -13.5283 2.12012 -22.4121 2.72363c-8.88477 0.602539 -15.8525 0.905273 -20.9004 0.905273s-11.5596 -0.0976562 -19.5342 -0.301758c-7.97461 -0.195312 -12.7695 -0.301758 -14.3877 -0.301758
v-102.373c1.61816 0 5.35254 -0.0488281 11.209 -0.155273c5.85449 -0.0976562 10.7012 -0.146484 14.5381 -0.146484c3.83789 0 9.18652 0.146484 16.0518 0.447266c6.86328 0.310547 12.7705 0.709961 17.7168 1.21582c4.94922 0.506836 10.7021 1.3623 17.2627 2.57715
c6.56445 1.20605 12.166 2.625 16.8145 4.23926c4.63965 1.61426 9.43457 3.73535 14.3857 6.36133c4.94824 2.62598 8.9375 5.65137 11.9629 9.08398c3.03027 3.43359 5.50391 7.46973 7.4209 12.1172c1.91992 4.6416 2.87793 9.79395 2.87793 15.4453v0zM323.79 268.026
c0 6.66211 -1.26367 12.5684 -3.78809 17.7188c-2.52344 5.14941 -5.60156 9.38965 -9.23535 12.7207c-3.63672 3.33105 -8.48047 6.1582 -14.5391 8.48047s-11.6123 3.9873 -16.6602 4.99707c-5.04688 1.01074 -11.2578 1.81836 -18.625 2.42383
c-7.37109 0.605469 -13.2266 0.857422 -17.5693 0.755859c-4.3418 -0.0996094 -9.79395 -0.201172 -16.3535 -0.301758c-6.56445 -0.101562 -10.5518 -0.152344 -11.9668 -0.152344v-92.9854c1.01074 0 4.49219 -0.0517578 10.4492 -0.150391
c5.95605 -0.102539 10.6543 -0.102539 14.0869 0c3.42773 0.0986328 8.48047 0.301758 15.1426 0.605469c6.66211 0.302734 12.2168 0.858398 16.6562 1.66504c4.44434 0.806641 9.6416 1.91895 15.5986 3.33008c5.95703 1.41504 10.8535 3.28223 14.6914 5.60449
c3.83691 2.32324 7.57227 5.04883 11.208 8.17676c3.63379 3.13184 6.36035 7.01758 8.1748 11.6611c1.82031 4.64648 2.72949 9.79395 2.72949 15.4502z" />
    <glyph glyph-name="uniF139" unicode="&#xf139;" 
d="M508 156.72c0 -5.45703 -1.99316 -10.1855 -5.97852 -14.1729c-3.99512 -3.98926 -8.71875 -5.98828 -14.1807 -5.98828h-70.5605c0 -35.9062 -7.03027 -66.3574 -21.0986 -91.3457l65.5127 -65.8369c3.99512 -3.98926 5.98926 -8.71875 5.98926 -14.1758
c0 -5.46289 -1.99316 -10.1855 -5.98926 -14.1768c-3.77344 -3.98926 -8.50586 -5.98828 -14.1709 -5.98828c-5.67383 0 -10.3984 1.99805 -14.1797 5.98828l-62.3691 62.0566c-1.05176 -1.05176 -2.62012 -2.41211 -4.72266 -4.0957
c-2.10352 -1.67871 -6.51367 -4.67383 -13.2305 -8.97168c-6.7168 -4.30859 -13.5439 -8.1416 -20.4727 -11.5c-6.92773 -3.35938 -15.5449 -6.4043 -25.832 -9.13477c-10.2871 -2.73145 -20.4717 -4.0957 -30.5557 -4.0957v282.241h-40.3193v-282.242
c-10.7109 0 -21.3662 1.41602 -31.9717 4.25391c-10.6045 2.83691 -19.7402 6.29688 -27.4053 10.3926s-14.5947 8.19336 -20.791 12.2881c-6.19336 4.09375 -10.7607 7.50684 -13.7002 10.2373l-4.72559 4.40918l-57.6484 -65.208
c-4.19922 -4.40918 -9.23926 -6.61426 -15.1182 -6.61426c-5.04004 0 -9.55664 1.68359 -13.5469 5.04199c-3.9873 3.77832 -6.1416 8.45117 -6.45605 14.0186c-0.31543 5.56348 1.3125 10.4443 4.88379 14.6465l63.6289 71.5068
c-12.1807 23.9414 -18.2695 52.708 -18.2695 86.3086h-70.5615c-5.45898 0 -10.1855 1.99707 -14.1748 5.98828c-3.99023 3.9834 -5.98535 8.71191 -5.98535 14.1689c0 5.46191 1.99512 10.1846 5.98535 14.1787c3.99023 3.9873 8.71582 5.9834 14.1758 5.9834h70.5605
v92.6113l-54.4961 54.4941c-3.99023 3.98926 -5.98535 8.71387 -5.98535 14.1758s1.99512 10.1855 5.98535 14.1758s8.71387 5.9834 14.1758 5.9834c5.45996 0 10.1855 -1.99316 14.1738 -5.9834l54.4951 -54.498h265.859l54.4971 54.498
c3.98633 3.99023 8.71875 5.9834 14.1719 5.9834c5.46191 0 10.1855 -1.99316 14.1787 -5.9834c3.9873 -3.99023 5.98828 -8.71387 5.98828 -14.1758s-2.00098 -10.1855 -5.98828 -14.1758l-54.4971 -54.4941v-92.6113h70.5605c5.46191 0 10.1855 -1.99609 14.1797 -5.9834
c3.98633 -3.99219 5.97949 -8.7168 5.97949 -14.1787v0zM356.804 338.162h-201.602c0 27.9316 9.81641 51.7129 29.4502 71.3496c19.6357 19.6328 43.418 29.4492 71.3477 29.4492c27.9268 0 51.7158 -9.81641 71.3486 -29.4492
c19.6348 -19.6367 29.4551 -43.418 29.4551 -71.3496z" />
    </font>
</defs>
</svg>
